<svg xmlns="http://www.w3.org/2000/svg" width="48" height="48" fill="none"><path fill="#8F8F8F" fill-rule="evenodd" d="M28 14c0-3.31-2.69-6-6-6h-2v4h2c1.1 0 2 .9 2 2s-.9 2-2 2H5v4h17c3.31 0 6-2.69 6-6ZM13 28H5v4h8c1.1 0 2 .9 2 2s-.9 2-2 2h-2v4h2c3.31 0 6-2.69 6-6s-2.69-6-6-6Zm-8-6h32c3.31 0 6 2.69 6 6s-2.69 6-6 6h-2v-4h2c1.1 0 2-.9 2-2s-.9-2-2-2H5v-4Z" clip-rule="evenodd"/><path fill="#5E5E5E" fill-rule="evenodd" d="m32.7 31.87-1-1.74-3.7 2.14V28h-2v4.27l-3.7-2.14-1 1.74L25 34l-3.7 2.13 1 1.74 3.7-2.13V40h2v-4.26l3.7 2.13 1-1.74L29 34l3.7-2.13Zm9-20-1-1.74-3.7 2.14V8h-2v4.27l-3.7-2.14-1 1.74L34 14l-3.7 2.13 1 1.74 3.7-2.13V20h2v-4.26l3.7 2.13 1-1.74L38 14l3.7-2.13Z" clip-rule="evenodd"/></svg>