<svg xmlns="http://www.w3.org/2000/svg" width="49" height="49" fill="none"><path fill="url(#a)" fill-rule="evenodd" d="M30.406 31.085c-3.405 3.576-3.313 9.143.275 12.611 3.682 3.559 9.652 3.559 13.334 0 3.682-3.559 3.682-9.328 0-12.887a6.223 6.223 0 0 0-.059-.056l-4.511-4.36a15.969 15.969 0 0 1-9.04 4.692Z" clip-rule="evenodd"/><path fill="url(#b)" d="m28.175 27.273-.253.01H10.927l-.069-.001c-4.19 0-7.581-3.373-7.581-7.527 0-4.153 3.39-7.526 7.581-7.526 1.455 0 2.813.406 3.966 1.11l.628.384.125-.726c.992-5.75 6.04-10.132 12.12-10.132 6.794 0 12.296 5.47 12.296 12.209 0 6.58-5.246 11.95-11.818 12.2Z"/><path stroke="url(#c)" d="m28.175 27.273-.253.01H10.927l-.069-.001c-4.19 0-7.581-3.373-7.581-7.527 0-4.153 3.39-7.526 7.581-7.526 1.455 0 2.813.406 3.966 1.11l.628.384.125-.726c.992-5.75 6.04-10.132 12.12-10.132 6.794 0 12.296 5.47 12.296 12.209 0 6.58-5.246 11.95-11.818 12.2Z"/><path stroke="url(#d)" d="m28.175 27.273-.253.01H10.927l-.069-.001c-4.19 0-7.581-3.373-7.581-7.527 0-4.153 3.39-7.526 7.581-7.526 1.455 0 2.813.406 3.966 1.11l.628.384.125-.726c.992-5.75 6.04-10.132 12.12-10.132 6.794 0 12.296 5.47 12.296 12.209 0 6.58-5.246 11.95-11.818 12.2Z"/><defs><linearGradient id="a" x1="37.348" x2="37.348" y1="24.365" y2="45.482" gradientUnits="userSpaceOnUse"><stop stop-color="#2E7AF5"/><stop offset="1" stop-color="#0B57D0"/></linearGradient><linearGradient id="c" x1="26.554" x2="32.294" y1="14.254" y2="26.553" gradientUnits="userSpaceOnUse"><stop stop-color="#80868B" stop-opacity="0"/><stop offset="1" stop-color="#80868B"/></linearGradient><linearGradient id="d" x1="35.983" x2="6.056" y1="2.365" y2="13.844" gradientUnits="userSpaceOnUse"><stop stop-color="#81878C"/><stop offset="1" stop-color="#C3C5C6" stop-opacity="0"/></linearGradient><radialGradient id="b" cx="0" cy="0" r="1" gradientTransform="matrix(-20.82243 -21.00494 50.52926 -50.09023 34.207 25.62)" gradientUnits="userSpaceOnUse"><stop stop-color="#B4B4B4"/><stop offset=".298" stop-color="#B4B4B4"/><stop offset="1" stop-color="#E3E3E3"/></radialGradient></defs></svg>