<svg xmlns="http://www.w3.org/2000/svg" width="49" height="49" fill="none"><path fill="#757575" fill-rule="evenodd" d="M35.68 29.896c.025-.014.05.019.03.039a.5.5 0 0 0-.146.354v1.29c0 .22.142.41.345.492.399.162.77.38 1.103.642.172.136.41.166.6.056l1.124-.65a.5.5 0 0 0 .233-.303l.836-3.12a.5.5 0 0 1 .613-.354l1.642.44a.5.5 0 0 1 .353.613l-.555 2.074a.5.5 0 0 0 .353.612l2.074.556a.5.5 0 0 1 .354.612l-.44 1.642a.5.5 0 0 1-.613.354l-3.12-.837a.5.5 0 0 0-.38.05l-1.132.654a.538.538 0 0 0-.253.544 4.59 4.59 0 0 1-.001 1.266.538.538 0 0 0 .252.545l1.134.655a.5.5 0 0 0 .38.05l3.12-.837a.5.5 0 0 1 .613.354l.44 1.642a.5.5 0 0 1-.354.612l-2.074.556a.5.5 0 0 0-.353.612l.556 2.075a.5.5 0 0 1-.354.612l-1.642.44a.5.5 0 0 1-.612-.354l-.837-3.12a.5.5 0 0 0-.233-.304l-1.131-.653a.538.538 0 0 0-.6.055c-.331.26-.7.476-1.096.637a.538.538 0 0 0-.345.491v1.301a.5.5 0 0 0 .146.354l2.285 2.284a.5.5 0 0 1 0 .708l-1.202 1.202a.5.5 0 0 1-.707 0l-1.519-1.519a.5.5 0 0 0-.707 0l-1.518 1.519a.5.5 0 0 1-.707 0l-1.202-1.202a.5.5 0 0 1 0-.708l2.284-2.284a.5.5 0 0 0 .147-.354v-1.287a.538.538 0 0 0-.35-.492 4.545 4.545 0 0 1-1.113-.64.538.538 0 0 0-.598-.054l-1.111.642a.5.5 0 0 0-.233.303l-.837 3.121a.5.5 0 0 1-.612.354l-1.642-.44a.5.5 0 0 1-.353-.613l.555-2.074a.5.5 0 0 0-.353-.612l-2.075-.556a.5.5 0 0 1-.353-.612l.44-1.643a.5.5 0 0 1 .612-.353l3.121.836a.5.5 0 0 0 .38-.05l1.101-.636c.19-.11.284-.33.252-.547a4.584 4.584 0 0 1 0-1.298.538.538 0 0 0-.253-.547l-1.1-.635a.5.5 0 0 0-.38-.05l-3.12.836a.5.5 0 0 1-.613-.353l-.44-1.642a.5.5 0 0 1 .353-.613l2.075-.555c.202-.055.394-.184.604-.184h1.481l.234-.014c.18-.007.358-.017.536-.03.224-.017.425.154.62.267l1.104.637c.19.11.426.081.598-.054a4.543 4.543 0 0 1 1.12-.645.538.538 0 0 0 .35-.492v-.297a.21.21 0 0 1 .145-.2 15.925 15.925 0 0 0 2.672-1.173Zm-3.331 6.389a1.848 1.848 0 1 1 3.695 0 1.848 1.848 0 0 1-3.695 0Z" clip-rule="evenodd"/><path fill="url(#a)" d="m28.178 27.887-.253.01H10.969a1.894 1.894 0 0 0-.11-.001c-4.19 0-7.582-3.373-7.582-7.527s3.391-7.527 7.582-7.527c1.455 0 2.813.406 3.966 1.11l.628.383.125-.725c.993-5.75 6.04-10.133 12.122-10.133 6.795 0 12.298 5.47 12.298 12.21 0 6.58-5.246 11.95-11.82 12.2Z"/><path stroke="url(#b)" d="m28.178 27.887-.253.01H10.969a1.894 1.894 0 0 0-.11-.001c-4.19 0-7.582-3.373-7.582-7.527s3.391-7.527 7.582-7.527c1.455 0 2.813.406 3.966 1.11l.628.383.125-.725c.993-5.75 6.04-10.133 12.122-10.133 6.795 0 12.298 5.47 12.298 12.21 0 6.58-5.246 11.95-11.82 12.2Z"/><path stroke="url(#c)" d="m28.178 27.887-.253.01H10.969a1.894 1.894 0 0 0-.11-.001c-4.19 0-7.582-3.373-7.582-7.527s3.391-7.527 7.582-7.527c1.455 0 2.813.406 3.966 1.11l.628.383.125-.725c.993-5.75 6.04-10.133 12.122-10.133 6.795 0 12.298 5.47 12.298 12.21 0 6.58-5.246 11.95-11.82 12.2Z"/><defs><linearGradient id="b" x1="26.557" x2="32.297" y1="14.867" y2="27.167" gradientUnits="userSpaceOnUse"><stop stop-color="#80868B" stop-opacity="0"/><stop offset="1" stop-color="#80868B"/></linearGradient><linearGradient id="c" x1="35.987" x2="6.057" y1="2.977" y2="14.457" gradientUnits="userSpaceOnUse"><stop stop-color="#81878C"/><stop offset="1" stop-color="#C3C5C6" stop-opacity="0"/></linearGradient><radialGradient id="a" cx="0" cy="0" r="1" gradientTransform="matrix(-20.82447 -21.007 50.53416 -50.09508 34.21 26.235)" gradientUnits="userSpaceOnUse"><stop stop-color="#B4B4B4"/><stop offset=".298" stop-color="#B4B4B4"/><stop offset="1" stop-color="#E3E3E3"/></radialGradient></defs></svg>