<svg xmlns="http://www.w3.org/2000/svg" width="48" height="48" fill="none"><mask id="c" fill="#fff"><path fill-rule="evenodd" d="M47 16.5c0 8.358-6.662 15.171-15 15.488V32H11v-.002l-.143.001C5.413 31.999 1 27.616 1 22.209c0-5.406 4.413-9.788 9.857-9.788 1.89 0 3.654.527 5.154 1.443C17.271 6.559 23.679 1 31.393 1 40.013 1 47 7.94 47 16.5Z" clip-rule="evenodd"/></mask><path fill="url(#a)" fill-rule="evenodd" d="M47 16.5c0 8.358-6.662 15.171-15 15.488V32H11v-.002l-.143.001C5.413 31.999 1 27.616 1 22.209c0-5.406 4.413-9.788 9.857-9.788 1.89 0 3.654.527 5.154 1.443C17.271 6.559 23.679 1 31.393 1 40.013 1 47 7.94 47 16.5Z" clip-rule="evenodd"/><path fill="url(#b)" d="m32 31.988-.038-1-.962.037v.963h1ZM32 32v1h1v-1h-1Zm-21 0h-1v1h1v-1Zm0-.002h1v-1.014l-1.014.014.014 1Zm5.011-18.134-.521.853 1.256.767.25-1.45-.985-.17Zm16.027 19.123C40.905 32.651 48 25.404 48 16.5h-2c0 7.813-6.229 14.192-14.038 14.489l.076 1.998ZM33 32v-.012h-2V32h2Zm-22 1h21v-2H11v2Zm-1-1.002V32h2v-.002h-2Zm.986-1-.129.001v2l.157-.001-.028-2Zm-.129.001C5.959 30.999 2 27.057 2 22.209H0C0 28.176 4.867 33 10.857 33v-2ZM2 22.209c0-4.847 3.959-8.788 8.857-8.788v-2C4.867 11.42 0 16.244 0 22.21h2Zm8.857-8.788c1.7 0 3.286.474 4.633 1.296l1.042-1.707a10.861 10.861 0 0 0-5.675-1.59v2ZM31.393 0C23.19 0 16.368 5.913 15.026 13.694l1.97.34C18.174 7.205 24.17 2 31.393 2V0ZM48 16.5C48 7.38 40.558 0 31.393 0v2C39.467 2 46 8.498 46 16.5h2Z" mask="url(#c)"/><path fill="url(#d)" d="m32 31.988-.038-1-.962.037v.963h1ZM32 32v1h1v-1h-1Zm-21 0h-1v1h1v-1Zm0-.002h1v-1.014l-1.014.014.014 1Zm5.011-18.134-.521.853 1.256.767.25-1.45-.985-.17Zm16.027 19.123C40.905 32.651 48 25.404 48 16.5h-2c0 7.813-6.229 14.192-14.038 14.489l.076 1.998ZM33 32v-.012h-2V32h2Zm-22 1h21v-2H11v2Zm-1-1.002V32h2v-.002h-2Zm.986-1-.129.001v2l.157-.001-.028-2Zm-.129.001C5.959 30.999 2 27.057 2 22.209H0C0 28.176 4.867 33 10.857 33v-2ZM2 22.209c0-4.847 3.959-8.788 8.857-8.788v-2C4.867 11.42 0 16.244 0 22.21h2Zm8.857-8.788c1.7 0 3.286.474 4.633 1.296l1.042-1.707a10.861 10.861 0 0 0-5.675-1.59v2ZM31.393 0C23.19 0 16.368 5.913 15.026 13.694l1.97.34C18.174 7.205 24.17 2 31.393 2V0ZM48 16.5C48 7.38 40.558 0 31.393 0v2C39.467 2 46 8.498 46 16.5h2Z" mask="url(#c)"/><path fill="#5E5E5E" fill-rule="evenodd" d="M34.379 39.993V44h1.242v-4.007l3.758 2.003.621-.993-3.757-2.004L40 36.996l-.621-.993-3.758 2.003V34H34.38v4.006l-3.758-2.003-.621.993L33.757 39 30 41.003l.621.993 3.758-2.003Z" clip-rule="evenodd"/><path fill="#5E5E5E" d="M34.379 39.993h.15v-.25l-.22.118.07.132Zm0 4.007h-.15v.15h.15V44Zm1.242 0v.15h.15V44h-.15Zm0-4.007.071-.132-.22-.118v.25h.15Zm3.758 2.003-.07.133.123.066.074-.12-.127-.079Zm.621-.993.127.08.085-.137-.141-.076-.071.133Zm-3.757-2.004-.07-.132-.25.133.25.132.07-.133ZM40 36.996l.07.133.142-.076-.085-.136-.127.08Zm-.621-.993.127-.08-.074-.119-.124.066.07.133Zm-3.758 2.003h-.15v.25l.221-.118-.07-.132Zm0-4.006h.15v-.15h-.15V34Zm-1.242 0v-.15h-.15V34h.15Zm0 4.006-.07.132.22.118v-.25h-.15Zm-3.758-2.003.07-.133-.123-.066-.074.12.127.079Zm-.621.993-.127-.08-.085.137.141.076.071-.133ZM33.757 39l.07.133.25-.133-.25-.132-.07.133ZM30 41.003l-.07-.133-.142.076.085.136.127-.08Zm.621.993-.127.08.074.119.124-.066-.07-.133Zm3.608-2.003V44h.3v-4.007h-.3Zm.15 4.157h1.242v-.3H34.38v.3ZM35.77 44v-4.007h-.3V44h.3Zm-.22-3.874 3.757 2.003.141-.265-3.757-2.003-.141.265Zm3.955 1.95.621-.994-.254-.159-.622.994.255.159Zm.565-1.206-3.758-2.003-.14.265 3.756 2.003.142-.265Zm-.142-4.006-3.757 2.003.141.265 3.758-2.003-.142-.265Zm-.678-.782.622.994.254-.16-.621-.993-.255.16Zm-3.559 2.056 3.757-2.003-.14-.265-3.758 2.003.141.265Zm.08-.132V34h-.3v4.006h.3Zm-.15-4.156h-1.243v.3h1.242v-.3Zm-1.393.15v4.006h.3V34h-.3Zm.22 3.873-3.757-2.003-.141.265 3.757 2.003.141-.265Zm-3.955-1.95-.621.994.254.159.622-.994-.255-.159Zm-.565 1.206 3.758 2.003.14-.265-3.756-2.003-.142.265Zm.142 4.006 3.757-2.003-.141-.265-3.758 2.003.142.265Zm.678.782-.622-.994-.254.16.621.993.255-.16Zm3.56-2.056-3.758 2.003.14.265 3.758-2.003-.14-.265Z"/><defs><linearGradient id="b" x1="30" x2="37" y1="15.5" y2="30.5" gradientUnits="userSpaceOnUse"><stop stop-color="#80868B" stop-opacity="0"/><stop offset="1" stop-color="#80868B"/></linearGradient><linearGradient id="d" x1="41.5" x2="5" y1="1" y2="15" gradientUnits="userSpaceOnUse"><stop stop-color="#81878C"/><stop offset="1" stop-color="#C3C5C6" stop-opacity="0"/></linearGradient><radialGradient id="a" cx="0" cy="0" r="1" gradientTransform="rotate(-134.75 25.785 6.485) scale(36.0726 86.7758)" gradientUnits="userSpaceOnUse"><stop stop-color="#B4B4B4"/><stop offset=".298" stop-color="#B4B4B4"/><stop offset="1" stop-color="#E3E3E3"/></radialGradient></defs></svg>