<svg xmlns="http://www.w3.org/2000/svg" width="48" height="48" fill="none"><path fill="url(#a)" fill-opacity=".92" fill-rule="evenodd" d="m21.13 31 5.752-11.78c.588-1.473 1.317-2.428 2.876-2.428h17.178c.038-.427.064-.853.064-1.292C47 6.936 40.009 0 31.394 0c-7.72 0-14.123 5.554-15.389 12.865a9.82 9.82 0 0 0-5.15-1.447C5.41 11.418 1 15.798 1 21.21c0 5.193 4.064 9.43 9.203 9.765V31H21.13Z" clip-rule="evenodd"/><path fill="#0B57D0" d="m18 33-4.24 4.107a5.656 5.656 0 0 0 0 8.2c2.347 2.266 6.147 2.266 8.48 0a5.656 5.656 0 0 0 0-8.2l-.04-.04L18 33ZM7 22l-4.24 4.107a5.656 5.656 0 0 0 0 8.2c2.347 2.266 6.147 2.266 8.48 0a5.656 5.656 0 0 0 0-8.2l-.04-.04L7 22Z"/><path fill="url(#b)" fill-rule="evenodd" d="M30.667 21 24 34.754h6L29.253 47 44 30.958l-5.333-.026L44 21H30.667Z" clip-rule="evenodd"/><defs><radialGradient id="a" cx="0" cy="0" r="1" gradientTransform="rotate(-134.75 25.577 5.985) scale(36.0726 86.7758)" gradientUnits="userSpaceOnUse"><stop offset=".298" stop-color="#898989"/><stop offset="1" stop-color="#E3E3E3"/></radialGradient><linearGradient id="b" x1="30.5" x2="41.96" y1="22" y2="44.459" gradientUnits="userSpaceOnUse"><stop stop-color="#FCB224"/><stop offset=".557" stop-color="#E47100"/></linearGradient></defs></svg>