<svg xmlns="http://www.w3.org/2000/svg" width="48" height="48" fill="none"><path fill="url(#a)" d="M20.761 4.944a4.619 4.619 0 0 1 4.296 4.295 4.619 4.619 0 0 0 1.128 2.724 4.62 4.62 0 0 1 0 6.074 4.62 4.62 0 0 0-1.128 2.724 4.619 4.619 0 0 1-4.296 4.296 4.62 4.62 0 0 0-2.724 1.128 4.619 4.619 0 0 1-6.074 0 4.62 4.62 0 0 0-2.724-1.128 4.619 4.619 0 0 1-4.295-4.296 4.62 4.62 0 0 0-1.129-2.724 4.62 4.62 0 0 1 0-6.074 4.619 4.619 0 0 0 1.129-2.724 4.619 4.619 0 0 1 4.295-4.295 4.62 4.62 0 0 0 2.724-1.129 4.619 4.619 0 0 1 6.074 0 4.62 4.62 0 0 0 2.724 1.129Z"/><path fill="url(#b)" fill-opacity=".92" fill-rule="evenodd" d="m21.13 31 5.752-11.4c.588-1.425 1.317-2.35 2.876-2.35h17.178c.038-.413.064-.825.064-1.25 0-8.287-6.991-15-15.606-15-7.72 0-14.123 5.375-15.389 12.45a10.065 10.065 0 0 0-5.15-1.4C5.41 12.05 1 16.288 1 21.525c0 5.025 4.064 9.125 9.203 9.45V31H21.13Z" clip-rule="evenodd"/><path fill="#0B57D0" d="m17 33-4.24 4.107a5.656 5.656 0 0 0 0 8.2c2.347 2.266 6.147 2.266 8.48 0a5.656 5.656 0 0 0 0-8.2l-.04-.04L17 33ZM7 22l-4.24 4.107a5.656 5.656 0 0 0 0 8.2c2.347 2.266 6.147 2.266 8.48 0a5.656 5.656 0 0 0 0-8.2l-.04-.04L7 22Z"/><path fill="url(#c)" fill-rule="evenodd" d="M30.667 21 24 34.754h6L29.253 47 44 30.958l-5.333-.026L44 21H30.667Z" clip-rule="evenodd"/><defs><radialGradient id="a" cx="0" cy="0" r="1" gradientTransform="rotate(63.555 .448 8.427) scale(22.7304)" gradientUnits="userSpaceOnUse"><stop stop-color="#FFBB29"/><stop offset=".27" stop-color="#FCB224"/><stop offset=".524" stop-color="#E47100"/></radialGradient><radialGradient id="b" cx="0" cy="0" r="1" gradientTransform="matrix(-25.39597 -24.79154 59.6232 -61.07683 39.333 28.448)" gradientUnits="userSpaceOnUse"><stop offset=".298" stop-color="#898989"/><stop offset="1" stop-color="#E3E3E3"/></radialGradient><linearGradient id="c" x1="30.5" x2="41.96" y1="22" y2="44.459" gradientUnits="userSpaceOnUse"><stop stop-color="#FCB224"/><stop offset=".557" stop-color="#E47100"/></linearGradient></defs></svg>