<svg xmlns="http://www.w3.org/2000/svg" width="48" height="48" fill="none"><path fill="url(#a)" fill-opacity=".95" fill-rule="evenodd" d="M47 16.5c0 8.358-6.662 15.172-15 15.488V32H11v-.002l-.143.001C5.413 31.999 1 27.616 1 22.209c0-5.406 4.413-9.788 9.857-9.788 1.89 0 3.655.527 5.154 1.443C17.271 6.559 23.68 1 31.393 1 40.013 1 47 7.94 47 16.5Z" clip-rule="evenodd"/><path fill="#5E5E5E" fill-rule="evenodd" d="M19.13 41.392V47h1.74v-5.609l5.26 2.805.87-1.392L21.74 40 27 37.196l-.87-1.392-5.26 2.805V33h-1.74v5.609l-5.26-2.805-.87 1.392L18.26 40 13 42.804l.87 1.392 5.26-2.804Z" clip-rule="evenodd"/><path fill="#5E5E5E" d="M19.13 41.392h.15v-.25l-.22.117.07.133Zm0 5.608h-.15v.15h.15V47Zm1.74 0v.15h.15V47h-.15Zm0-5.609.07-.132-.22-.118v.25h.15Zm5.26 2.805-.07.132.123.066.074-.119-.127-.08Zm.87-1.392.127.08.085-.136-.141-.076-.071.132ZM21.74 40l-.07-.132-.249.132.248.133.07-.133ZM27 37.196l.07.132.142-.076-.085-.136-.127.08Zm-.87-1.392.127-.08-.074-.118-.123.066.07.132Zm-5.26 2.805h-.15v.25l.22-.118-.07-.132Zm0-5.609h.15v-.15h-.15V33Zm-1.74 0v-.15h-.15V33h.15Zm0 5.609-.07.132.22.118v-.25h-.15Zm-5.26-2.805.07-.132-.123-.066-.074.119.127.08ZM13 37.196l-.127-.08-.085.136.141.076.071-.132ZM18.26 40l.07.133.249-.133-.248-.132-.07.132ZM13 42.804l-.07-.132-.142.076.085.136.127-.08Zm.87 1.392-.127.08.074.118.123-.066-.07-.132Zm5.11-2.804V47h.3v-5.608h-.3Zm.15 5.758h1.74v-.3h-1.74v.3Zm1.89-.15v-5.609h-.3V47h.3Zm-.22-5.476 5.26 2.804.14-.265-5.26-2.804-.14.265Zm5.457 2.751.87-1.391-.254-.16-.87 1.392.254.16Zm.814-1.603-5.26-2.804-.142.264 5.26 2.805.142-.265Zm-.142-5.609-5.26 2.805.141.264 5.26-2.804-.14-.265Zm-.926-1.179.87 1.391.254-.159-.87-1.391-.254.159Zm-5.063 2.857 5.26-2.804-.14-.265-5.26 2.805.14.264Zm.08-.132V33h-.3v5.609h.3Zm-.15-5.759h-1.74v.3h1.74v-.3Zm-1.89.15v5.609h.3V33h-.3Zm.22 5.476-5.26-2.804-.14.265 5.26 2.804.14-.265Zm-5.457-2.751-.87 1.391.254.16.87-1.392-.254-.16Zm-.814 1.603 5.26 2.804.142-.264-5.26-2.805-.142.265Zm.142 5.609 5.26-2.804-.141-.265-5.26 2.804.14.265Zm.926 1.18-.87-1.392-.254.159.87 1.391.254-.159Zm5.062-2.858-5.26 2.804.142.265 5.26-2.804-.142-.265Z"/><path fill="#474747" d="m37 35 5.657 5.656L37 46.313l-5.657-5.657z"/><path fill="#0B57D0" d="m37 19-4.243 4.1a5.663 5.663 0 0 0 0 8.201c2.344 2.265 6.143 2.265 8.486 0a5.663 5.663 0 0 0 0-8.2l-.038-.036L37 19Z"/><defs><radialGradient id="a" cx="0" cy="0" r="1" gradientTransform="rotate(-134.751 25.785 6.485) scale(36.0727 86.7761)" gradientUnits="userSpaceOnUse"><stop offset=".298" stop-color="#B4B4B4"/><stop offset="1" stop-color="#E3E3E3"/></radialGradient></defs></svg>