<svg xmlns="http://www.w3.org/2000/svg" width="48" height="48" fill="none"><path fill="url(#a)" d="M19.761 3.944a4.619 4.619 0 0 1 4.296 4.295 4.619 4.619 0 0 0 1.128 2.724 4.62 4.62 0 0 1 0 6.074 4.62 4.62 0 0 0-1.128 2.724 4.619 4.619 0 0 1-4.296 4.296 4.62 4.62 0 0 0-2.724 1.128 4.619 4.619 0 0 1-6.074 0 4.62 4.62 0 0 0-2.724-1.128 4.619 4.619 0 0 1-4.295-4.296 4.62 4.62 0 0 0-1.129-2.724 4.62 4.62 0 0 1 0-6.074 4.619 4.619 0 0 0 1.129-2.724 4.619 4.619 0 0 1 4.295-4.295 4.62 4.62 0 0 0 2.724-1.129 4.619 4.619 0 0 1 6.074 0 4.62 4.62 0 0 0 2.724 1.129Z"/><path fill="url(#b)" fill-opacity=".95" fill-rule="evenodd" d="M47 16.499c0 8.358-6.662 15.17-15 15.487V32H11v-.004l-.143.001C5.413 31.997 1 27.615 1 22.21c0-5.406 4.413-9.789 9.857-9.789 1.89 0 3.654.528 5.154 1.443C17.27 6.56 23.678 1 31.393 1 40.013 1 47 7.939 47 16.499Z" clip-rule="evenodd"/><path fill="#5E5E5E" fill-rule="evenodd" d="M23.254 29.193V34h1.491v-4.807l4.51 2.403.745-1.192L25.491 28 30 25.596l-.746-1.192-4.509 2.404V22h-1.49v4.807l-4.51-2.403L18 25.596 22.509 28 18 30.404l.746 1.192 4.508-2.403Z" clip-rule="evenodd"/><path fill="#5E5E5E" d="M23.254 29.193h.15v-.25l-.22.117.07.133Zm0 4.807h-.15v.15h.15V34Zm1.491 0v.15h.15V34h-.15Zm0-4.807.071-.133-.22-.117v.25h.15Zm4.51 2.403-.071.133.123.066.075-.12-.128-.079ZM30 30.404l.127.08.085-.137-.141-.076-.071.133ZM25.491 28l-.07-.132-.249.132.249.133.07-.133ZM30 25.596l.07.133.142-.076-.085-.136-.127.08Zm-.746-1.192.127-.08-.074-.118-.123.065.07.133Zm-4.509 2.404h-.15v.25l.221-.118-.07-.132Zm0-4.808h.15v-.15h-.15V22Zm-1.49 0v-.15h-.15V22h.15Zm0 4.807-.071.133.22.117v-.25h-.15Zm-4.51-2.403.071-.133-.123-.065-.075.118.128.08ZM18 25.596l-.127-.08-.085.137.141.076.071-.133ZM22.509 28l.07.133.249-.133-.249-.132-.07.132ZM18 30.404l-.07-.133-.142.076.085.136.127-.08Zm.746 1.192-.127.08.074.119.123-.066-.07-.133Zm4.358-2.403V34h.3v-4.807h-.3Zm.15 4.957h1.491v-.3h-1.49v.3Zm1.641-.15v-4.807h-.3V34h.3Zm-.22-4.675 4.509 2.404.14-.265-4.508-2.404-.141.265Zm4.706 2.35.746-1.192-.254-.159-.746 1.193.255.159Zm.69-1.404-4.51-2.403-.14.265 4.508 2.403.142-.265Zm-.142-4.807-4.508 2.404.14.265 4.51-2.404-.142-.265Zm-.802-.98.746 1.192.254-.16-.745-1.192-.255.16Zm-4.311 2.456 4.509-2.404-.141-.265-4.51 2.404.142.265Zm.08-.132V22h-.3v4.808h.3Zm-.15-4.958h-1.492v.3h1.491v-.3Zm-1.642.15v4.807h.3V22h-.3Zm.22 4.675-4.508-2.404-.14.265 4.508 2.404.14-.265Zm-4.706-2.35-.745 1.192.254.159.746-1.193-.255-.159Zm-.689 1.404 4.51 2.404.14-.265-4.508-2.404-.142.265Zm.142 4.807 4.508-2.404-.14-.264-4.51 2.403.142.265Zm.802.98-.746-1.192-.254.16.745 1.192.255-.16Zm4.31-2.456-4.508 2.404.141.265 4.509-2.404-.141-.265Z"/><path fill="#5E5E5E" fill-rule="evenodd" d="M34.379 39.993V44h1.242v-4.007l3.758 2.003.621-.993-3.757-2.004L40 36.996l-.621-.993-3.758 2.003V34H34.38v4.006l-3.758-2.003-.621.993L33.757 39 30 41.003l.621.993 3.758-2.003Z" clip-rule="evenodd"/><path fill="#5E5E5E" d="M34.379 39.993h.15v-.25l-.22.118.07.132Zm0 4.007h-.15v.15h.15V44Zm1.242 0v.15h.15V44h-.15Zm0-4.007.071-.132-.22-.118v.25h.15Zm3.758 2.003-.07.133.123.066.074-.12-.127-.079Zm.621-.993.127.08.085-.137-.141-.076-.071.133Zm-3.757-2.004-.07-.132-.25.133.25.132.07-.133ZM40 36.996l.07.133.142-.076-.085-.136-.127.08Zm-.621-.993.127-.08-.074-.119-.124.066.07.133Zm-3.758 2.003h-.15v.25l.221-.118-.07-.132Zm0-4.006h.15v-.15h-.15V34Zm-1.242 0v-.15h-.15V34h.15Zm0 4.006-.07.132.22.118v-.25h-.15Zm-3.758-2.003.07-.133-.123-.066-.074.12.127.079Zm-.621.993-.127-.08-.085.137.141.076.071-.133ZM33.757 39l.07.133.25-.133-.25-.132-.07.133ZM30 41.003l-.07-.133-.142.076.085.136.127-.08Zm.621.993-.127.08.074.119.124-.066-.07-.133Zm3.608-2.003V44h.3v-4.007h-.3Zm.15 4.157h1.242v-.3H34.38v.3ZM35.77 44v-4.007h-.3V44h.3Zm-.22-3.874 3.757 2.003.141-.265-3.757-2.003-.141.265Zm3.955 1.95.621-.994-.254-.159-.622.994.255.159Zm.565-1.206-3.758-2.003-.14.265 3.756 2.003.142-.265Zm-.142-4.006-3.757 2.003.141.265 3.758-2.003-.142-.265Zm-.678-.782.622.994.254-.16-.621-.993-.255.16Zm-3.559 2.056 3.757-2.003-.14-.265-3.758 2.003.141.265Zm.08-.132V34h-.3v4.006h.3Zm-.15-4.156h-1.243v.3h1.242v-.3Zm-1.393.15v4.006h.3V34h-.3Zm.22 3.873-3.757-2.003-.141.265 3.757 2.003.141-.265Zm-3.955-1.95-.621.994.254.159.622-.994-.255-.159Zm-.565 1.206 3.758 2.003.14-.265-3.756-2.003-.142.265Zm.142 4.006 3.757-2.003-.141-.265-3.758 2.003.142.265Zm.678.782-.622-.994-.254.16.621.993.255-.16Zm3.56-2.056-3.758 2.003.14.265 3.758-2.003-.14-.265Z"/><path fill="#5E5E5E" fill-rule="evenodd" d="M39.254 25.193V30h1.492v-4.807l4.508 2.403.746-1.192L41.491 24 46 21.596l-.746-1.192-4.508 2.404V18h-1.492v4.807l-4.508-2.403L34 21.596 38.509 24 34 26.404l.746 1.192 4.508-2.403Z" clip-rule="evenodd"/><path fill="#5E5E5E" d="M39.254 25.193h.15v-.25l-.22.117.07.133Zm0 4.807h-.15v.15h.15V30Zm1.492 0v.15h.15V30h-.15Zm0-4.807.07-.133-.22-.117v.25h.15Zm4.508 2.403-.07.133.123.066.075-.12-.128-.079ZM46 26.404l.127.08.085-.137-.141-.076-.071.133ZM41.491 24l-.07-.132-.249.132.249.133.07-.133ZM46 21.596l.07.133.142-.076-.085-.136-.127.08Zm-.746-1.192.128-.08-.075-.118-.123.065.07.133Zm-4.508 2.404h-.15v.25l.22-.118-.07-.132Zm0-4.808h.15v-.15h-.15V18Zm-1.492 0v-.15h-.15V18h.15Zm0 4.807-.07.133.22.117v-.25h-.15Zm-4.508-2.403.07-.133-.123-.065-.075.118.128.08ZM34 21.596l-.127-.08-.085.137.141.076.071-.133ZM38.509 24l.07.133.249-.133-.249-.132-.07.132ZM34 26.404l-.07-.133-.142.076.085.136.127-.08Zm.746 1.192-.128.08.075.119.123-.066-.07-.133Zm4.358-2.403V30h.3v-4.807h-.3Zm.15 4.957h1.492v-.3h-1.492v.3Zm1.642-.15v-4.807h-.3V30h.3Zm-.221-4.675 4.509 2.404.14-.265-4.508-2.404-.141.265Zm4.707 2.35.745-1.192-.254-.159-.746 1.193.255.159Zm.689-1.404-4.51-2.403-.14.265 4.508 2.403.142-.265Zm-.142-4.807-4.508 2.404.14.265 4.51-2.404-.142-.265Zm-.802-.98.746 1.192.254-.16-.745-1.192-.255.16Zm-4.311 2.456 4.509-2.404-.141-.265-4.51 2.404.142.265Zm.08-.132V18h-.3v4.808h.3Zm-.15-4.958h-1.492v.3h1.492v-.3Zm-1.642.15v4.807h.3V18h-.3Zm.22 4.675-4.508-2.404-.14.265 4.508 2.404.14-.265Zm-4.706-2.35-.745 1.192.254.159.746-1.193-.255-.159Zm-.689 1.404 4.51 2.404.14-.265-4.508-2.404-.142.265Zm.142 4.807 4.508-2.404-.14-.264-4.51 2.403.142.265Zm.802.98-.746-1.192-.254.16.745 1.192.255-.16Zm4.31-2.456-4.508 2.404.141.265 4.509-2.404-.141-.265Z"/><defs><radialGradient id="a" cx="0" cy="0" r="1" gradientTransform="rotate(63.555 .755 7.12) scale(22.7304)" gradientUnits="userSpaceOnUse"><stop stop-color="#FFBB29"/><stop offset=".27" stop-color="#FCB224"/><stop offset=".524" stop-color="#E47100"/></radialGradient><radialGradient id="b" cx="0" cy="0" r="1" gradientTransform="rotate(-134.75 25.785 6.485) scale(36.0726 86.7758)" gradientUnits="userSpaceOnUse"><stop offset=".298" stop-color="#B4B4B4"/><stop offset="1" stop-color="#E3E3E3"/></radialGradient></defs></svg>