<svg xmlns="http://www.w3.org/2000/svg" width="48" height="48" fill="none"><path fill="url(#a)" fill-rule="evenodd" d="M12.968 1a11.744 11.744 0 0 0-2.705 7.496c0 6.63 5.53 12.003 12.352 12.003.128 0 .256-.002.383-.006C20.735 23.241 17.254 25 13.351 25 6.53 25 1 19.626 1 12.997 1 6.493 6.324 1.197 12.968 1Z" clip-rule="evenodd"/><path fill="url(#b)" fill-opacity=".95" fill-rule="evenodd" d="M47 16.5c0 8.358-6.662 15.171-15 15.488V32H11v-.002h-.143C5.413 31.999 1 27.617 1 22.21s4.413-9.79 9.857-9.79c1.89 0 3.654.528 5.154 1.444C17.271 6.559 23.679 1 31.393 1 40.013 1 47 7.94 47 16.5Z" clip-rule="evenodd"/><path fill="#0B57D0" d="m23 20-4.243 4.1a5.663 5.663 0 0 0 0 8.202c2.343 2.264 6.142 2.264 8.485 0a5.663 5.663 0 0 0-.037-8.237L23 20Zm8 13-4.243 4.1a5.663 5.663 0 0 0 0 8.202c2.343 2.264 6.142 2.264 8.485 0a5.663 5.663 0 0 0-.037-8.237L31 33Zm10-13-4.243 4.1a5.663 5.663 0 0 0 0 8.201c2.344 2.265 6.143 2.265 8.486 0a5.663 5.663 0 0 0 0-8.2l-.038-.036L41 20Z"/><defs><radialGradient id="b" cx="0" cy="0" r="1" gradientTransform="rotate(-134.75 25.785 6.485) scale(36.0726 86.7758)" gradientUnits="userSpaceOnUse"><stop offset=".298" stop-color="#B4B4B4"/><stop offset="1" stop-color="#E3E3E3"/></radialGradient><linearGradient id="a" x1="-.913" x2="23.437" y1="1" y2="27.05" gradientUnits="userSpaceOnUse"><stop stop-color="#A8C7FA"/><stop offset=".461" stop-color="#4C8DF6"/></linearGradient></defs></svg>