<svg xmlns="http://www.w3.org/2000/svg" width="48" height="48" fill="none"><path fill="url(#a)" fill-rule="evenodd" d="M30.667 21 24 34.757h6L29.257 47 44 30.962l-5.335-.02L44 21H30.667Z" clip-rule="evenodd"/><path fill="url(#b)" fill-rule="evenodd" d="M18.667 37 16 42.291h2.4L18.103 47 24 40.832l-2.134-.008L24 37h-5.333Z" clip-rule="evenodd"/><path fill="url(#c)" fill-opacity=".92" fill-rule="evenodd" d="M27.304 20.22 21.604 32H18.77a.835.835 0 0 1-.297-1.105l1.044-1.952c.712-1.332-.253-2.943-1.764-2.943h-3.586c-.179 0-.354.024-.52.069a1.985 1.985 0 0 0-.523-.069h-3.039a2 2 0 0 0-1.806 1.14l-1.82 3.83C3.222 29.366 1 26.049 1 22.21c0-5.413 4.41-9.792 9.854-9.792a9.82 9.82 0 0 1 5.151 1.447C17.271 6.555 23.675 1 31.394 1 40.009 1 47 7.936 47 16.5c0 .44-.026.865-.064 1.292H30.857a3.83 3.83 0 0 0-3.553 2.428Z" clip-rule="evenodd"/><path fill="url(#d)" fill-rule="evenodd" d="m10 28-4 7.937h3.6L9.154 43 18 33.748l-3.201-.013L18 28h-8Z" clip-rule="evenodd"/><defs><linearGradient id="a" x1="30.5" x2="41.96" y1="22" y2="44.459" gradientUnits="userSpaceOnUse"><stop stop-color="#FCB224"/><stop offset=".557" stop-color="#E47100"/></linearGradient><linearGradient id="b" x1="18.6" x2="22.905" y1="37.385" y2="46.159" gradientUnits="userSpaceOnUse"><stop stop-color="#FCB224"/><stop offset=".557" stop-color="#E47100"/></linearGradient><linearGradient id="d" x1="9.9" x2="16.358" y1="28.577" y2="41.739" gradientUnits="userSpaceOnUse"><stop stop-color="#FCB224"/><stop offset=".557" stop-color="#E47100"/></linearGradient><radialGradient id="c" cx="0" cy="0" r="1" gradientTransform="rotate(-134.75 25.785 6.485) scale(36.0726 86.7758)" gradientUnits="userSpaceOnUse"><stop offset=".298" stop-color="#898989"/><stop offset="1" stop-color="#E3E3E3"/></radialGradient></defs></svg>