<svg xmlns="http://www.w3.org/2000/svg" width="49" height="49" fill="none"><g clip-path="url(#a)"><path fill="url(#b)" d="M27.046 5.915a6.21 6.21 0 0 1 5.775 5.774 6.21 6.21 0 0 0 1.517 3.662 6.21 6.21 0 0 1 0 8.166 6.21 6.21 0 0 0-1.517 3.662 6.21 6.21 0 0 1-5.775 5.775 6.21 6.21 0 0 0-3.662 1.517 6.21 6.21 0 0 1-8.166 0 6.21 6.21 0 0 0-3.662-1.517 6.21 6.21 0 0 1-5.774-5.775 6.21 6.21 0 0 0-1.517-3.662 6.21 6.21 0 0 1 0-8.166 6.21 6.21 0 0 0 1.517-3.662 6.21 6.21 0 0 1 5.774-5.774 6.21 6.21 0 0 0 3.662-1.517 6.21 6.21 0 0 1 8.166 0 6.21 6.21 0 0 0 3.662 1.517Z"/><path fill="url(#c)" d="M24.942 46.417h-.046c-3.023 0-5.467-2.433-5.467-5.426 0-.223.013-.442.04-.657.019-.157.18-.334.468-.352a10.183 10.183 0 0 0 6.077-2.498l-.328-.376.328.376a2.21 2.21 0 0 1 1.304-.54 10.212 10.212 0 0 0 9.25-7.865c.063-.268.258-.416.438-.423.107-.003.215-.005.322-.005 4.946 0 8.949 3.98 8.949 8.883 0 4.787-3.817 8.695-8.6 8.877l-.184.006H24.942Z"/><path stroke="url(#d)" d="M24.942 46.417h-.046c-3.023 0-5.467-2.433-5.467-5.426 0-.223.013-.442.04-.657.019-.157.18-.334.468-.352a10.183 10.183 0 0 0 6.077-2.498l-.328-.376.328.376a2.21 2.21 0 0 1 1.304-.54 10.212 10.212 0 0 0 9.25-7.865c.063-.268.258-.416.438-.423.107-.003.215-.005.322-.005 4.946 0 8.949 3.98 8.949 8.883 0 4.787-3.817 8.695-8.6 8.877l-.184.006H24.942Z"/><path stroke="url(#e)" d="M24.942 46.417h-.046c-3.023 0-5.467-2.433-5.467-5.426 0-.223.013-.442.04-.657.019-.157.18-.334.468-.352a10.183 10.183 0 0 0 6.077-2.498l-.328-.376.328.376a2.21 2.21 0 0 1 1.304-.54 10.212 10.212 0 0 0 9.25-7.865c.063-.268.258-.416.438-.423.107-.003.215-.005.322-.005 4.946 0 8.949 3.98 8.949 8.883 0 4.787-3.817 8.695-8.6 8.877l-.184.006H24.942Z"/></g><defs><radialGradient id="b" cx="0" cy="0" r="1" gradientTransform="rotate(64.537 -4.905 20.132) scale(18.2404)" gradientUnits="userSpaceOnUse"><stop offset=".016" stop-color="#FFBB29"/><stop offset=".531" stop-color="#FCB224"/><stop offset=".99" stop-color="#E47100"/></radialGradient><radialGradient id="c" cx="0" cy="0" r="1" gradientTransform="matrix(-15.37413 -15.50889 37.30803 -36.98386 42.135 45.321)" gradientUnits="userSpaceOnUse"><stop stop-color="#B4B4B4"/><stop offset=".298" stop-color="#B4B4B4"/><stop offset="1" stop-color="#E3E3E3"/></radialGradient><linearGradient id="d" x1="36.485" x2="40.723" y1="36.929" y2="46.01" gradientUnits="userSpaceOnUse"><stop stop-color="#80868B" stop-opacity="0"/><stop offset="1" stop-color="#80868B"/></linearGradient><linearGradient id="e" x1="43.447" x2="21.35" y1="28.151" y2="36.626" gradientUnits="userSpaceOnUse"><stop stop-color="#81878C"/><stop offset="1" stop-color="#C3C5C6" stop-opacity="0"/></linearGradient><clipPath id="a"><path fill="#fff" d="M.777.918h48v48h-48z"/></clipPath></defs></svg>