<svg xmlns="http://www.w3.org/2000/svg" width="48" height="48" fill="none"><mask id="a" width="37" height="36" x="7" y="3" maskUnits="userSpaceOnUse" style="mask-type:luminance"><path fill="#fff" fill-rule="evenodd" d="M21.01 39h5.49c0-1.47.43-2.84 1.16-4H19c0 1.64.79 3.09 2.01 4ZM44 3H7v4h33l4-4ZM21 31h13l4-4H21v4Zm-2.1-8H40c.87-1.16 1.5-2.52 1.8-4H14.9l4 4ZM8.67 11c.62 1.43 1.41 2.77 2.33 4h30.8c-.3-1.48-.93-2.84-1.8-4H8.67Z" clip-rule="evenodd"/></mask><g mask="url(#a)"><path fill="#8F8F8F" fill-rule="evenodd" d="M7 3h37l-4 4H7V3Zm14 28h13l4-4H21v4Zm.01 8h5.49c0-1.47.43-2.84 1.16-4H19c0 1.64.79 3.09 2.01 4ZM8.67 11c.62 1.43 1.41 2.77 2.33 4h30.8c-.3-1.48-.93-2.84-1.8-4H8.67ZM40 23H18.9l-4-4h26.9c-.3 1.48-.93 2.84-1.8 4Z" clip-rule="evenodd"/></g><mask id="b" width="37" height="36" x="7" y="3" maskUnits="userSpaceOnUse" style="mask-type:luminance"><path fill="#fff" fill-rule="evenodd" d="M21.01 39h5.49c0-1.47.43-2.84 1.16-4H19c0 1.64.79 3.09 2.01 4ZM44 3H7v4h33l4-4ZM21 31h13l4-4H21v4Zm-2.1-8H40c.87-1.16 1.5-2.52 1.8-4H14.9l4 4ZM8.67 11c.62 1.43 1.41 2.77 2.33 4h30.8c-.3-1.48-.93-2.84-1.8-4H8.67Z" clip-rule="evenodd"/></mask><g fill="#fff" fill-rule="evenodd" clip-rule="evenodd" mask="url(#b)" opacity=".2"><path d="M21 27.25h16.51L38 27H21v.25Zm20.68-8H15.4l-.5-.25h26.9l-.12.25ZM19 35l.03.25h8.34l.29-.25H19ZM8.67 11H40c.87 1.16 1.5 2.52 1.8 4l-.12-.25c-.33-1.29-.9-2.47-1.68-3.5H8.9L8.67 11ZM7 3v.25h36.5L44 3H7Z"/></g><mask id="c" width="37" height="36" x="7" y="3" maskUnits="userSpaceOnUse" style="mask-type:luminance"><path fill="#fff" fill-rule="evenodd" d="M21.01 39h5.49c0-1.47.43-2.84 1.16-4H19c0 1.64.79 3.09 2.01 4ZM44 3H7v4h33l4-4ZM21 31h13l4-4H21v4Zm-2.1-8H40c.87-1.16 1.5-2.52 1.8-4H14.9l4 4ZM8.67 11c.62 1.43 1.41 2.77 2.33 4h30.8c-.3-1.48-.93-2.84-1.8-4H8.67Z" clip-rule="evenodd"/></mask><g mask="url(#c)"><path fill="#8F8F8F" fill-rule="evenodd" d="m44 3-.5.25-3.5 3.5H7V7h33l4-4ZM26.5 38.75h-5.49a4.993 4.993 0 0 1-1.98-3.5L19 35c0 1.64.79 3.09 2.01 4h5.49c0-1.47.43-2.84 1.16-4l-.28.25a7.385 7.385 0 0 0-.88 3.5Zm-5.5-8h13l3.49-3.49L38 27l-4 4H21v-.25Zm20.68-11.5c-.33 1.28-.91 2.47-1.68 3.5H18.9l-3.5-3.5-.5-.25 4 4H40c.87-1.16 1.5-2.52 1.8-4l-.12.25ZM11 15c-.92-1.23-1.71-2.57-2.33-4l.23.25c.58 1.24 1.28 2.41 2.1 3.5h30.68l.12.25H11Z" clip-rule="evenodd"/></g><path fill="#DBDBDB" d="M38 45a9 9 0 1 0 0-18 9 9 0 0 0 0 18Zm-28 0a9 9 0 1 1 0-18 9 9 0 0 1 0 18Z"/><path fill="#BBB" fill-rule="evenodd" d="M39 45a7.5 7.5 0 0 0-15 0M9 45a7.5 7.5 0 0 1 15 0" clip-rule="evenodd"/></svg>