<svg xmlns="http://www.w3.org/2000/svg" width="48" height="48" fill="none"><g clip-path="url(#a)"><path fill="#ABABAB" fill-rule="evenodd" d="M37 3a6.91 6.91 0 0 0-6.918 6.91v18.428c0 .158 0 .303.013.462C28.191 30.623 27 33.173 27 36.013 27 41.522 31.471 46 37 46c5.53 0 10-4.465 10-9.987 0-2.84-1.19-5.403-3.095-7.213.013-.159.013-.304.013-.462V9.909C43.931 6.091 40.823 3 37 3Z" clip-rule="evenodd"/><path fill="#fff" fill-rule="evenodd" d="M37 5.51a3.746 3.746 0 0 0-3.743 3.739v20.978a6.907 6.907 0 0 0-3.175 5.812A6.91 6.91 0 0 0 37 42.95a6.91 6.91 0 0 0 6.918-6.91c0-2.43-1.27-4.584-3.175-5.812V9.249C40.757 7.188 39.077 5.51 37 5.51Z" clip-rule="evenodd"/><path fill="#0B57D0" d="M37 32.948a3.746 3.746 0 0 1 3.743 3.739c0 2.06-1.68 3.738-3.743 3.738a3.746 3.746 0 0 1-3.743-3.738A3.746 3.746 0 0 1 37 32.948Z"/><path fill="#0B57D0" d="M37 22.96c.74 0 1.336.595 1.336 1.335v9.314A1.33 1.33 0 0 1 37 34.943c-.74 0-1.336-.595-1.336-1.334v-9.314c.013-.726.608-1.334 1.336-1.334Z"/><path fill="#5E5E5E" d="M22.603 38.646v-7.341A6.979 6.979 0 0 0 28 24.507a6.965 6.965 0 0 0-5.397-6.798v-7.341l4.634-4.665.46-.464-.46-.463-1.29-1.299L25.486 3l-.461.464-3.976 4.002-3.988-3.989-.461-.464-.461.464.448.464-.461-.464-1.29 1.299-.461.463.46.464 4.635 4.665v7.327a6.963 6.963 0 0 0-2.12.875l-5.147-5.181V6.14H9.07v6.334H2.79v3.153h7.201l5.148 5.182a6.795 6.795 0 0 0-.87 2.12H8.307l-4.634-4.665-.46.464-.461-.464-1.29 1.299-.46.464.46.463 3.975 4.002-3.975 4.002.46.477-.46-.463-.46.463.46.464 1.29 1.299.46.463.461-.463 4.634-4.665h5.964c.17.769.474 1.484.882 2.134l-5.147 5.18H2.79v3.157h6.293v6.333h3.133v-7.249l5.134-5.18c.645.41 1.356.701 2.12.887v7.315l-4.634 4.664-.461.464.46.464 1.29 1.298.462.464.46-.464 3.976-4.002 3.976 4.002.46.464.461-.464 1.29-1.298.461-.464-.46-.464-4.608-4.664ZM21.14 28.363h-.21c-2.054-.053-3.713-1.75-3.726-3.83v-.04c.014-2.12 1.725-3.842 3.831-3.842 2.12 0 3.831 1.722 3.831 3.856a3.853 3.853 0 0 1-3.726 3.856Z"/></g><defs><clipPath id="a"><path fill="#fff" d="M0 0h48v48H0z"/></clipPath></defs></svg>