<svg width="811" height="236" viewBox="0 0 811 236" fill="none" xmlns="http://www.w3.org/2000/svg">
<g filter="url(#filter0_d_33_3626)">
<rect width="791" height="216" rx="36" fill="white" shape-rendering="crispEdges"/>
<rect x="6" y="6" width="779" height="204" rx="30" stroke="#811818" stroke-width="12" shape-rendering="crispEdges"/>
<path d="M83.6932 83.5483V70.3636H145.812V83.5483H122.656V146H106.849V83.5483H83.6932ZM149.857 146V89.2727H165.109V99.1705H165.7C166.734 95.6496 168.47 92.9905 170.908 91.1932C173.345 89.3712 176.152 88.4602 179.328 88.4602C180.116 88.4602 180.965 88.5095 181.876 88.608C182.787 88.7064 183.588 88.8419 184.277 89.0142V102.974C183.538 102.753 182.517 102.556 181.212 102.384C179.907 102.211 178.713 102.125 177.629 102.125C175.315 102.125 173.247 102.63 171.425 103.639C169.627 104.624 168.199 106.003 167.141 107.776C166.107 109.548 165.589 111.592 165.589 113.906V146H149.857ZM206.962 147.071C203.343 147.071 200.118 146.443 197.286 145.188C194.455 143.907 192.214 142.024 190.565 139.537C188.94 137.026 188.127 133.899 188.127 130.156C188.127 127.005 188.706 124.358 189.863 122.216C191.02 120.074 192.596 118.35 194.59 117.045C196.585 115.741 198.85 114.756 201.386 114.091C203.946 113.426 206.63 112.958 209.437 112.688C212.736 112.343 215.395 112.023 217.414 111.727C219.433 111.407 220.898 110.939 221.809 110.324C222.72 109.708 223.175 108.797 223.175 107.591V107.369C223.175 105.03 222.437 103.221 220.96 101.94C219.507 100.66 217.439 100.02 214.755 100.02C211.924 100.02 209.671 100.648 207.996 101.903C206.322 103.134 205.214 104.686 204.673 106.557L190.121 105.375C190.86 101.928 192.313 98.9489 194.479 96.4375C196.646 93.9015 199.441 91.9564 202.863 90.6023C206.31 89.2235 210.299 88.5341 214.829 88.5341C217.98 88.5341 220.996 88.9034 223.877 89.642C226.782 90.3807 229.355 91.5256 231.596 93.0767C233.861 94.6278 235.646 96.6222 236.951 99.0597C238.256 101.473 238.908 104.366 238.908 107.739V146H223.988V138.134H223.545C222.634 139.906 221.415 141.47 219.888 142.824C218.362 144.153 216.528 145.2 214.386 145.963C212.244 146.702 209.769 147.071 206.962 147.071ZM211.468 136.213C213.782 136.213 215.826 135.758 217.599 134.847C219.371 133.911 220.763 132.655 221.772 131.08C222.781 129.504 223.286 127.719 223.286 125.724V119.705C222.794 120.025 222.117 120.32 221.255 120.591C220.418 120.837 219.47 121.071 218.411 121.293C217.353 121.49 216.294 121.674 215.235 121.847C214.176 121.994 213.216 122.13 212.354 122.253C210.508 122.524 208.895 122.955 207.516 123.545C206.138 124.136 205.067 124.937 204.303 125.946C203.54 126.931 203.158 128.162 203.158 129.639C203.158 131.781 203.934 133.419 205.485 134.551C207.061 135.659 209.055 136.213 211.468 136.213ZM266.847 113.205V146H251.114V89.2727H266.109V99.2812H266.773C268.029 95.982 270.134 93.3722 273.089 91.4517C276.043 89.5066 279.626 88.5341 283.836 88.5341C287.775 88.5341 291.21 89.3958 294.14 91.1193C297.07 92.8428 299.347 95.3049 300.972 98.5057C302.597 101.682 303.41 105.473 303.41 109.881V146H287.677V112.688C287.701 109.216 286.815 106.508 285.018 104.562C283.22 102.593 280.746 101.608 277.594 101.608C275.477 101.608 273.606 102.063 271.981 102.974C270.38 103.885 269.125 105.215 268.214 106.963C267.327 108.687 266.872 110.767 266.847 113.205ZM363.009 105.449L348.605 106.335C348.359 105.104 347.83 103.996 347.017 103.011C346.205 102.002 345.134 101.202 343.804 100.611C342.499 99.9953 340.936 99.6875 339.114 99.6875C336.676 99.6875 334.62 100.205 332.946 101.239C331.272 102.248 330.435 103.602 330.435 105.301C330.435 106.655 330.976 107.8 332.06 108.736C333.143 109.671 335.002 110.422 337.636 110.989L347.903 113.057C353.419 114.189 357.53 116.011 360.239 118.523C362.947 121.034 364.301 124.333 364.301 128.42C364.301 132.138 363.205 135.401 361.014 138.207C358.848 141.014 355.868 143.205 352.077 144.781C348.31 146.332 343.964 147.108 339.04 147.108C331.53 147.108 325.547 145.545 321.091 142.418C316.659 139.266 314.062 134.982 313.298 129.565L328.773 128.753C329.241 131.043 330.373 132.791 332.17 133.997C333.968 135.179 336.27 135.77 339.077 135.77C341.834 135.77 344.05 135.241 345.724 134.182C347.423 133.098 348.285 131.707 348.31 130.009C348.285 128.58 347.682 127.411 346.5 126.5C345.318 125.564 343.496 124.85 341.034 124.358L331.21 122.401C325.67 121.293 321.546 119.372 318.838 116.639C316.154 113.906 314.812 110.422 314.812 106.188C314.812 102.544 315.797 99.4044 317.767 96.7699C319.761 94.1354 322.556 92.1042 326.151 90.6761C329.77 89.2481 334.005 88.5341 338.855 88.5341C346.02 88.5341 351.658 90.0483 355.77 93.0767C359.906 96.1051 362.319 100.229 363.009 105.449ZM389.941 70.3636V146H374.208V70.3636H389.941ZM418.72 147.071C415.101 147.071 411.875 146.443 409.044 145.188C406.213 143.907 403.972 142.024 402.322 139.537C400.697 137.026 399.885 133.899 399.885 130.156C399.885 127.005 400.464 124.358 401.621 122.216C402.778 120.074 404.354 118.35 406.348 117.045C408.342 115.741 410.607 114.756 413.143 114.091C415.704 113.426 418.388 112.958 421.195 112.688C424.494 112.343 427.153 112.023 429.172 111.727C431.191 111.407 432.656 110.939 433.567 110.324C434.478 109.708 434.933 108.797 434.933 107.591V107.369C434.933 105.03 434.195 103.221 432.717 101.94C431.265 100.66 429.196 100.02 426.513 100.02C423.681 100.02 421.429 100.648 419.754 101.903C418.08 103.134 416.972 104.686 416.43 106.557L401.879 105.375C402.618 101.928 404.071 98.9489 406.237 96.4375C408.404 93.9015 411.198 91.9564 414.621 90.6023C418.068 89.2235 422.056 88.5341 426.587 88.5341C429.738 88.5341 432.754 88.9034 435.635 89.642C438.54 90.3807 441.113 91.5256 443.354 93.0767C445.619 94.6278 447.404 96.6222 448.709 99.0597C450.014 101.473 450.666 104.366 450.666 107.739V146H435.746V138.134H435.303C434.392 139.906 433.173 141.47 431.646 142.824C430.12 144.153 428.286 145.2 426.143 145.963C424.001 146.702 421.527 147.071 418.72 147.071ZM423.226 136.213C425.54 136.213 427.584 135.758 429.357 134.847C431.129 133.911 432.52 132.655 433.53 131.08C434.539 129.504 435.044 127.719 435.044 125.724V119.705C434.552 120.025 433.875 120.32 433.013 120.591C432.176 120.837 431.228 121.071 430.169 121.293C429.11 121.49 428.052 121.674 426.993 121.847C425.934 121.994 424.974 122.13 424.112 122.253C422.266 122.524 420.653 122.955 419.274 123.545C417.895 124.136 416.824 124.937 416.061 125.946C415.298 126.931 414.916 128.162 414.916 129.639C414.916 131.781 415.692 133.419 417.243 134.551C418.819 135.659 420.813 136.213 423.226 136.213ZM493.045 89.2727V101.091H458.884V89.2727H493.045ZM466.639 75.6818H482.372V128.568C482.372 130.021 482.594 131.153 483.037 131.966C483.48 132.754 484.096 133.308 484.884 133.628C485.696 133.948 486.632 134.108 487.69 134.108C488.429 134.108 489.168 134.046 489.906 133.923C490.645 133.776 491.211 133.665 491.605 133.591L494.08 145.298C493.292 145.545 492.184 145.828 490.756 146.148C489.328 146.492 487.592 146.702 485.548 146.776C481.757 146.923 478.433 146.419 475.577 145.261C472.745 144.104 470.542 142.307 468.966 139.869C467.39 137.432 466.615 134.354 466.639 130.636V75.6818ZM528.537 147.108C522.702 147.108 517.679 145.926 513.469 143.562C509.283 141.174 506.058 137.801 503.793 133.443C501.527 129.061 500.395 123.878 500.395 117.895C500.395 112.06 501.527 106.938 503.793 102.531C506.058 98.1241 509.246 94.6894 513.358 92.2273C517.494 89.7652 522.345 88.5341 527.909 88.5341C531.652 88.5341 535.135 89.1373 538.361 90.3438C541.611 91.5256 544.442 93.3106 546.855 95.6989C549.293 98.0871 551.188 101.091 552.543 104.71C553.897 108.305 554.574 112.515 554.574 117.341V121.662H506.673V111.912H539.764C539.764 109.647 539.272 107.64 538.287 105.892C537.302 104.144 535.936 102.777 534.188 101.793C532.464 100.783 530.457 100.278 528.168 100.278C525.779 100.278 523.662 100.832 521.815 101.94C519.993 103.024 518.565 104.489 517.531 106.335C516.497 108.157 515.968 110.188 515.943 112.429V121.699C515.943 124.506 516.46 126.931 517.494 128.974C518.553 131.018 520.043 132.594 521.963 133.702C523.884 134.81 526.161 135.364 528.795 135.364C530.544 135.364 532.144 135.117 533.597 134.625C535.049 134.133 536.293 133.394 537.327 132.409C538.361 131.424 539.149 130.218 539.69 128.79L554.241 129.75C553.503 133.246 551.989 136.299 549.699 138.909C547.434 141.494 544.504 143.513 540.909 144.966C537.339 146.394 533.215 147.108 528.537 147.108Z" fill="#381D1D"/>
<path d="M680.6 106.1C680.362 105.486 680.005 104.926 679.55 104.45L654.55 79.45C654.084 78.9838 653.53 78.614 652.921 78.3617C652.312 78.1094 651.659 77.9796 651 77.9796C649.668 77.9796 648.392 78.5085 647.45 79.45C646.984 79.9162 646.614 80.4697 646.362 81.0788C646.109 81.6879 645.98 82.3407 645.98 83C645.98 84.3315 646.508 85.6085 647.45 86.55L663.95 103H626C624.674 103 623.402 103.527 622.464 104.464C621.527 105.402 621 106.674 621 108C621 109.326 621.527 110.598 622.464 111.536C623.402 112.473 624.674 113 626 113H663.95L647.45 129.45C646.981 129.915 646.609 130.468 646.356 131.077C646.102 131.686 645.971 132.34 645.971 133C645.971 133.66 646.102 134.314 646.356 134.923C646.609 135.532 646.981 136.085 647.45 136.55C647.915 137.019 648.468 137.391 649.077 137.644C649.686 137.898 650.34 138.029 651 138.029C651.66 138.029 652.314 137.898 652.923 137.644C653.532 137.391 654.085 137.019 654.55 136.55L679.55 111.55C680.005 111.074 680.362 110.514 680.6 109.9C681.1 108.683 681.1 107.317 680.6 106.1Z" fill="#441616"/>
</g>
<defs>
<filter id="filter0_d_33_3626" x="0" y="0" width="811" height="236" filterUnits="userSpaceOnUse" color-interpolation-filters="sRGB">
<feFlood flood-opacity="0" result="BackgroundImageFix"/>
<feColorMatrix in="SourceAlpha" type="matrix" values="0 0 0 0 0 0 0 0 0 0 0 0 0 0 0 0 0 0 127 0" result="hardAlpha"/>
<feOffset dx="20" dy="20"/>
<feComposite in2="hardAlpha" operator="out"/>
<feColorMatrix type="matrix" values="0 0 0 0 0.516667 0 0 0 0 0.24983 0 0 0 0 0.0839583 0 0 0 1 0"/>
<feBlend mode="normal" in2="BackgroundImageFix" result="effect1_dropShadow_33_3626"/>
<feBlend mode="normal" in="SourceGraphic" in2="effect1_dropShadow_33_3626" result="shape"/>
</filter>
</defs>
</svg>
