<svg xmlns="http://www.w3.org/2000/svg" width="48" height="48" fill="none"><g clip-path="url(#a)"><path fill="url(#b)" d="M33.994 7.163a8.013 8.013 0 0 1 7.45 7.451 8.012 8.012 0 0 0 1.958 4.725 8.013 8.013 0 0 1 0 10.537 8.012 8.012 0 0 0-1.957 4.726 8.013 8.013 0 0 1-7.451 7.45 8.012 8.012 0 0 0-4.726 1.958 8.012 8.012 0 0 1-10.537 0 8.012 8.012 0 0 0-4.725-1.957 8.013 8.013 0 0 1-7.45-7.451 8.012 8.012 0 0 0-1.958-4.726 8.013 8.013 0 0 1 0-10.537 8.013 8.013 0 0 0 1.957-4.725 8.013 8.013 0 0 1 7.451-7.45 8.013 8.013 0 0 0 4.726-1.958 8.012 8.012 0 0 1 10.537 0 8.013 8.013 0 0 0 4.725 1.957Z"/><path fill="url(#c)" fill-opacity=".95" fill-rule="evenodd" d="M47 32c0 7.317-5.715 13.324-13 13.946V46H14v-.002c-4.97 0-9-3.959-9-8.842 0-4.883 4.03-8.841 9-8.841 1.725 0 3.337.476 4.706 1.303C19.856 23.021 25.706 18 32.75 18 40.62 18 47 24.268 47 32Z" clip-rule="evenodd"/></g><defs><radialGradient id="b" cx="0" cy="0" r="1" gradientTransform="rotate(54.961 -5.095 15.306) scale(21.1418 21.1309)" gradientUnits="userSpaceOnUse"><stop offset=".016" stop-color="#FFBB29"/><stop offset=".359" stop-color="#FCB224"/><stop offset=".967" stop-color="#E47100"/></radialGradient><linearGradient id="c" x1="33" x2="20.059" y1="48.8" y2="26.888" gradientUnits="userSpaceOnUse"><stop offset=".078" stop-color="#A0A0A0"/><stop offset=".349" stop-color="#CCC"/><stop offset="1" stop-color="#fff"/></linearGradient><clipPath id="a"><path fill="#fff" d="M0 0h48v48H0z"/></clipPath></defs></svg>