<svg xmlns="http://www.w3.org/2000/svg" width="48" height="48" fill="none"><g clip-path="url(#a)"><path fill="url(#b)" d="M26.97 5.324a6.273 6.273 0 0 1 5.986 5.985 6.296 6.296 0 0 0 1.532 3.835c2.082 2.4 2.084 5.986-.012 8.373l-.243.277a6.804 6.804 0 0 0-1.658 3.866 6.923 6.923 0 0 1-6.248 6.248 6.803 6.803 0 0 0-3.866 1.658l-.277.243c-2.388 2.097-5.973 2.094-8.373.013a6.295 6.295 0 0 0-3.835-1.533 6.273 6.273 0 0 1-5.986-5.986 6.295 6.295 0 0 0-1.532-3.834c-2.082-2.4-2.084-5.986.013-8.373l.243-.277a6.804 6.804 0 0 0 1.657-3.867 6.923 6.923 0 0 1 6.248-6.247 6.804 6.804 0 0 0 3.867-1.658l.276-.243c2.388-2.097 5.973-2.094 8.373-.013a6.295 6.295 0 0 0 3.835 1.533Z"/><path fill="url(#c)" fill-opacity=".95" fill-rule="evenodd" d="M47 27.5c0 8.358-6.662 15.17-15 15.487V43H11v-.003h-.143C5.413 42.998 1 38.616 1 33.21c0-5.407 4.413-9.79 9.857-9.79 1.89 0 3.654.529 5.154 1.444C17.271 17.559 23.68 12 31.393 12 40.013 12 47 18.94 47 27.5Z" clip-rule="evenodd"/></g><defs><radialGradient id="b" cx="0" cy="0" r="1" gradientTransform="rotate(55.801 -4.399 11.475) scale(19.7519 20.6277)" gradientUnits="userSpaceOnUse"><stop offset=".016" stop-color="#FFBB29"/><stop offset=".393" stop-color="#FCB224"/><stop offset=".967" stop-color="#E47100"/></radialGradient><linearGradient id="c" x1="31.667" x2="17.265" y1="46.1" y2="21.977" gradientUnits="userSpaceOnUse"><stop offset=".078" stop-color="#A0A0A0"/><stop offset=".349" stop-color="#CCC"/><stop offset="1" stop-color="#fff"/></linearGradient><clipPath id="a"><path fill="#fff" d="M0 0h48v48H0z"/></clipPath></defs></svg>