<svg xmlns="http://www.w3.org/2000/svg" width="48" height="48" fill="none"><path fill="url(#a)" fill-opacity=".95" fill-rule="evenodd" d="M47 16.5c0 8.358-6.662 15.171-15 15.488V32H11v-.002l-.143.001C5.413 31.999 1 27.616 1 22.209c0-5.406 4.413-9.788 9.857-9.788 1.89 0 3.654.527 5.154 1.443C17.271 6.559 23.679 1 31.393 1 40.013 1 47 7.94 47 16.5Z" clip-rule="evenodd"/><path fill="#5E5E5E" fill-rule="evenodd" d="M23.254 37.193V42h1.491v-4.807l4.51 2.403.745-1.192L25.491 36 30 33.596l-.746-1.192-4.509 2.404V30h-1.49v4.807l-4.51-2.403L18 33.596 22.509 36 18 38.404l.746 1.192 4.508-2.403Z" clip-rule="evenodd"/><path fill="#5E5E5E" d="M23.254 37.193h.15v-.25l-.22.117.07.133Zm0 4.807h-.15v.15h.15V42Zm1.491 0v.15h.15V42h-.15Zm0-4.807.071-.133-.22-.117v.25h.15Zm4.51 2.403-.071.133.123.066.075-.12-.128-.079ZM30 38.404l.127.08.085-.137-.141-.076-.071.133ZM25.491 36l-.07-.132-.249.132.249.133.07-.133ZM30 33.596l.07.133.142-.076-.085-.136-.127.08Zm-.746-1.192.127-.08-.074-.118-.123.065.07.133Zm-4.509 2.404h-.15v.25l.221-.118-.07-.132Zm0-4.808h.15v-.15h-.15V30Zm-1.49 0v-.15h-.15V30h.15Zm0 4.807-.071.133.22.117v-.25h-.15Zm-4.51-2.403.071-.133-.123-.065-.075.118.128.08ZM18 33.596l-.127-.08-.085.137.141.076.071-.133ZM22.509 36l.07.133.249-.133-.249-.132-.07.132ZM18 38.404l-.07-.133-.142.076.085.136.127-.08Zm.746 1.192-.127.08.074.119.123-.066-.07-.133Zm4.358-2.403V42h.3v-4.807h-.3Zm.15 4.957h1.491v-.3h-1.49v.3Zm1.641-.15v-4.807h-.3V42h.3Zm-.22-4.675 4.509 2.404.14-.265-4.508-2.404-.141.265Zm4.706 2.35.746-1.192-.254-.159-.746 1.193.255.159Zm.69-1.404-4.51-2.403-.14.264 4.508 2.404.142-.265Zm-.142-4.807-4.508 2.404.14.264 4.51-2.403-.142-.265Zm-.802-.98.746 1.192.254-.16-.745-1.192-.255.16Zm-4.311 2.456 4.509-2.404-.141-.265-4.51 2.404.142.265Zm.08-.132V30h-.3v4.808h.3Zm-.15-4.958h-1.492v.3h1.491v-.3Zm-1.642.15v4.807h.3V30h-.3Zm.22 4.675-4.508-2.404-.14.265 4.508 2.404.14-.265Zm-4.706-2.35-.745 1.192.254.159.746-1.193-.255-.159Zm-.689 1.404 4.51 2.404.14-.265-4.508-2.404-.142.265Zm.142 4.807 4.508-2.404-.14-.264-4.51 2.403.142.265Zm.802.98-.746-1.192-.254.16.745 1.192.255-.16Zm4.31-2.456-4.508 2.404.141.265 4.509-2.404-.141-.265Z"/><path fill="#5E5E5E" fill-rule="evenodd" d="M36.379 42.993V47h1.242v-4.007l3.758 2.003.621-.993-3.757-2.004L42 39.996l-.621-.993-3.758 2.003V37H36.38v4.006l-3.758-2.003-.621.993L35.757 42 32 44.003l.621.993 3.758-2.003Z" clip-rule="evenodd"/><path fill="#5E5E5E" d="M36.379 42.993h.15v-.25l-.22.118.07.132Zm0 4.007h-.15v.15h.15V47Zm1.242 0v.15h.15V47h-.15Zm0-4.007.071-.132-.22-.118v.25h.15Zm3.758 2.003-.07.133.123.066.074-.12-.127-.079Zm.621-.993.127.08.085-.137-.141-.076-.071.133Zm-3.757-2.004-.07-.132-.25.133.25.132.07-.133ZM42 39.996l.07.133.142-.076-.085-.136-.127.08Zm-.621-.993.127-.08-.074-.119-.124.066.07.133Zm-3.758 2.003h-.15v.25l.221-.118-.07-.132Zm0-4.006h.15v-.15h-.15V37Zm-1.242 0v-.15h-.15V37h.15Zm0 4.006-.07.132.22.118v-.25h-.15Zm-3.758-2.003.07-.133-.123-.066-.074.12.127.079Zm-.621.993-.127-.08-.085.137.141.076.071-.133ZM35.757 42l.07.133.25-.133-.25-.132-.07.133ZM32 44.003l-.07-.133-.142.076.085.136.127-.08Zm.621.993-.127.08.074.119.124-.066-.07-.133Zm3.608-2.003V47h.3v-4.007h-.3Zm.15 4.157h1.242v-.3H36.38v.3ZM37.77 47v-4.007h-.3V47h.3Zm-.22-3.874 3.757 2.003.141-.265-3.757-2.003-.141.265Zm3.955 1.95.621-.994-.254-.159-.622.994.255.159Zm.565-1.206-3.758-2.003-.14.265 3.756 2.003.142-.265Zm-.142-4.006-3.757 2.003.141.265 3.758-2.003-.142-.265Zm-.678-.782.622.994.254-.16-.621-.993-.255.16Zm-3.559 2.056 3.757-2.003-.14-.265-3.758 2.003.141.265Zm.08-.132V37h-.3v4.006h.3Zm-.15-4.156h-1.243v.3h1.242v-.3Zm-1.393.15v4.006h.3V37h-.3Zm.22 3.873-3.757-2.003-.141.265 3.757 2.003.141-.265Zm-3.955-1.95-.621.994.254.159.622-.994-.255-.159Zm-.565 1.206 3.758 2.003.14-.265-3.756-2.003-.142.265Zm.142 4.006 3.757-2.003-.141-.265-3.758 2.003.142.265Zm.678.782-.622-.994-.254.16.621.993.255-.16Zm3.56-2.056-3.758 2.003.14.265 3.758-2.003-.14-.265Z"/><path fill="#5E5E5E" fill-rule="evenodd" d="M39.254 29.193V34h1.492v-4.807l4.508 2.403.746-1.192L41.491 28 46 25.596l-.746-1.192-4.508 2.404V22h-1.492v4.807l-4.508-2.403L34 25.596 38.509 28 34 30.404l.746 1.192 4.508-2.403Z" clip-rule="evenodd"/><path fill="#5E5E5E" d="M39.254 29.193h.15v-.25l-.22.117.07.133Zm0 4.807h-.15v.15h.15V34Zm1.492 0v.15h.15V34h-.15Zm0-4.807.07-.133-.22-.117v.25h.15Zm4.508 2.403-.07.133.123.066.075-.12-.128-.079ZM46 30.404l.127.08.085-.137-.141-.076-.071.133ZM41.491 28l-.07-.132-.249.132.249.133.07-.133ZM46 25.596l.07.133.142-.076-.085-.136-.127.08Zm-.746-1.192.128-.08-.075-.118-.123.065.07.133Zm-4.508 2.404h-.15v.25l.22-.118-.07-.132Zm0-4.808h.15v-.15h-.15V22Zm-1.492 0v-.15h-.15V22h.15Zm0 4.807-.07.133.22.117v-.25h-.15Zm-4.508-2.403.07-.133-.123-.065-.075.118.128.08ZM34 25.596l-.127-.08-.085.137.141.076.071-.133ZM38.509 28l.07.133.249-.133-.249-.132-.07.132ZM34 30.404l-.07-.133-.142.076.085.136.127-.08Zm.746 1.192-.128.08.075.119.123-.066-.07-.133Zm4.358-2.403V34h.3v-4.807h-.3Zm.15 4.957h1.492v-.3h-1.492v.3Zm1.642-.15v-4.807h-.3V34h.3Zm-.221-4.675 4.509 2.404.14-.265-4.508-2.404-.141.265Zm4.707 2.35.745-1.192-.254-.159-.746 1.193.255.159Zm.689-1.404-4.51-2.403-.14.265 4.508 2.403.142-.265Zm-.142-4.807-4.508 2.404.14.265 4.51-2.404-.142-.265Zm-.802-.98.746 1.192.254-.16-.745-1.192-.255.16Zm-4.311 2.456 4.509-2.404-.141-.265-4.51 2.404.142.265Zm.08-.132V22h-.3v4.808h.3Zm-.15-4.958h-1.492v.3h1.492v-.3Zm-1.642.15v4.807h.3V22h-.3Zm.22 4.675-4.508-2.404-.14.265 4.508 2.404.14-.265Zm-4.706-2.35-.745 1.192.254.159.746-1.193-.255-.159Zm-.689 1.404 4.51 2.404.14-.265-4.508-2.404-.142.265Zm.142 4.807 4.508-2.404-.14-.264-4.51 2.403.142.265Zm.802.98-.746-1.192-.254.16.745 1.192.255-.16Zm4.31-2.456-4.508 2.404.141.265 4.509-2.404-.141-.265Z"/><defs><radialGradient id="a" cx="0" cy="0" r="1" gradientTransform="rotate(-134.75 25.785 6.485) scale(36.0726 86.7758)" gradientUnits="userSpaceOnUse"><stop offset=".298" stop-color="#B4B4B4"/><stop offset="1" stop-color="#E3E3E3"/></radialGradient></defs></svg>