<svg xmlns="http://www.w3.org/2000/svg" width="48" height="48" fill="none"><path fill="url(#a)" d="M33.876 6.76a7.918 7.918 0 0 1 7.364 7.364 7.919 7.919 0 0 0 1.934 4.67 7.918 7.918 0 0 1 0 10.413 7.919 7.919 0 0 0-1.934 4.67 7.919 7.919 0 0 1-7.364 7.363 7.919 7.919 0 0 0-4.67 1.934 7.918 7.918 0 0 1-10.413 0 7.919 7.919 0 0 0-4.67-1.934 7.918 7.918 0 0 1-7.363-7.364 7.919 7.919 0 0 0-1.934-4.67 7.918 7.918 0 0 1 0-10.412 7.919 7.919 0 0 0 1.934-4.67 7.918 7.918 0 0 1 7.364-7.364 7.919 7.919 0 0 0 4.67-1.934 7.918 7.918 0 0 1 10.413 0 7.919 7.919 0 0 0 4.67 1.934Z"/><defs><radialGradient id="a" cx="0" cy="0" r="1" gradientTransform="matrix(9.99998 21 -21 9.99998 19 19.5)" gradientUnits="userSpaceOnUse"><stop offset=".016" stop-color="#FFBB29"/><stop offset=".531" stop-color="#FCB224"/><stop offset=".99" stop-color="#E47100"/></radialGradient></defs></svg>