<svg xmlns="http://www.w3.org/2000/svg" width="49" height="49" fill="none"><path fill="url(#a)" fill-rule="evenodd" d="M40.881 25.078c.263-.36.728-.536 1.126-.336a4.641 4.641 0 0 1 2.55 3.834 4.64 4.64 0 0 0 1.133 2.737 4.64 4.64 0 0 1 0 6.102 4.64 4.64 0 0 0-1.134 2.737 4.64 4.64 0 0 1-4.315 4.315 4.64 4.64 0 0 0-2.737 1.134 4.64 4.64 0 0 1-6.102 0 4.64 4.64 0 0 0-2.737-1.134 4.64 4.64 0 0 1-4.316-4.315 4.64 4.64 0 0 0-1.133-2.737 4.642 4.642 0 0 1-.56-5.306c.157-.283.467-.436.79-.436h4.856l.234-.014a16.007 16.007 0 0 0 12.345-6.58Z" clip-rule="evenodd"/><path fill="url(#b)" d="m28.177 27.664-.252.01H10.969l-.042-.001h-.068c-4.19 0-7.582-3.374-7.582-7.528s3.391-7.527 7.582-7.527c1.455 0 2.813.406 3.966 1.11l.628.383.125-.725c.992-5.751 6.04-10.133 12.12-10.133 6.796 0 12.299 5.47 12.299 12.21 0 6.581-5.247 11.951-11.82 12.2Z"/><path stroke="url(#c)" d="m28.177 27.664-.252.01H10.969l-.042-.001h-.068c-4.19 0-7.582-3.374-7.582-7.528s3.391-7.527 7.582-7.527c1.455 0 2.813.406 3.966 1.11l.628.383.125-.725c.992-5.751 6.04-10.133 12.12-10.133 6.796 0 12.299 5.47 12.299 12.21 0 6.581-5.247 11.951-11.82 12.2Z"/><path stroke="url(#d)" d="m28.177 27.664-.252.01H10.969l-.042-.001h-.068c-4.19 0-7.582-3.374-7.582-7.528s3.391-7.527 7.582-7.527c1.455 0 2.813.406 3.966 1.11l.628.383.125-.725c.992-5.751 6.04-10.133 12.12-10.133 6.796 0 12.299 5.47 12.299 12.21 0 6.581-5.247 11.951-11.82 12.2Z"/><defs><radialGradient id="a" cx="0" cy="0" r="1" gradientTransform="rotate(64.537 -9.363 40.826) scale(13.6313)" gradientUnits="userSpaceOnUse"><stop offset=".016" stop-color="#FFBB29"/><stop offset=".531" stop-color="#FCB224"/><stop offset=".99" stop-color="#E47100"/></radialGradient><radialGradient id="b" cx="0" cy="0" r="1" gradientTransform="matrix(-20.82447 -21.007 50.53416 -50.09508 34.21 26.01)" gradientUnits="userSpaceOnUse"><stop stop-color="#B4B4B4"/><stop offset=".298" stop-color="#B4B4B4"/><stop offset="1" stop-color="#E3E3E3"/></radialGradient><linearGradient id="c" x1="26.557" x2="32.297" y1="14.643" y2="26.943" gradientUnits="userSpaceOnUse"><stop stop-color="#80868B" stop-opacity="0"/><stop offset="1" stop-color="#80868B"/></linearGradient><linearGradient id="d" x1="35.986" x2="6.057" y1="2.753" y2="14.233" gradientUnits="userSpaceOnUse"><stop stop-color="#81878C"/><stop offset="1" stop-color="#C3C5C6" stop-opacity="0"/></linearGradient></defs></svg>