<svg xmlns="http://www.w3.org/2000/svg" width="48" height="48" fill="none"><path fill="#8F8F8F" d="M33.01 33c-2.45 0-3.96.76-5.29 1.44-1.17.59-2.1 1.06-3.71 1.06-1.61 0-2.54-.47-3.71-1.06-1.33-.68-2.84-1.44-5.29-1.44s-3.96.76-5.29 1.44c-1.17.59-2.1 1.06-3.71 1.06V39c2.45 0 3.96-.76 5.29-1.44 1.17-.59 2.1-1.06 3.71-1.06 1.61 0 2.54.47 3.71 1.06 1.33.67 2.84 1.44 5.29 1.44s3.96-.76 5.29-1.44c1.17-.59 2.1-1.06 3.71-1.06 1.61 0 2.54.47 3.71 1.06 1.33.67 2.84 1.44 5.29 1.44v-3.5c-1.61 0-2.54-.47-3.71-1.06-1.33-.68-2.84-1.44-5.29-1.44Zm0-8c-2.45 0-3.96.76-5.29 1.44-1.17.59-2.1 1.06-3.71 1.06-1.61 0-2.54-.47-3.71-1.06-1.33-.68-2.84-1.44-5.29-1.44s-3.96.76-5.29 1.44c-1.17.59-2.1 1.06-3.71 1.06V31c2.45 0 3.96-.76 5.29-1.44 1.17-.59 2.1-1.06 3.71-1.06 1.61 0 2.54.47 3.71 1.06 1.33.67 2.84 1.44 5.29 1.44s3.96-.76 5.29-1.44c1.17-.59 2.1-1.06 3.71-1.06 1.61 0 2.54.47 3.71 1.06 1.33.67 2.84 1.44 5.29 1.44v-3.5c-1.61 0-2.54-.47-3.71-1.06-1.33-.68-2.84-1.44-5.29-1.44Zm0-8c-2.45 0-3.96.76-5.29 1.44-1.17.59-2.1 1.06-3.71 1.06-1.61 0-2.54-.47-3.71-1.06-1.33-.68-2.84-1.44-5.29-1.44s-3.96.76-5.29 1.44c-1.17.59-2.1 1.06-3.71 1.06V23c2.45 0 3.96-.76 5.29-1.44 1.17-.59 2.1-1.06 3.71-1.06 1.61 0 2.54.47 3.71 1.06 1.33.67 2.84 1.44 5.29 1.44s3.96-.76 5.29-1.44c1.17-.59 2.1-1.06 3.71-1.06 1.61 0 2.54.47 3.71 1.06 1.33.67 2.84 1.44 5.29 1.44v-3.5c-1.61 0-2.54-.47-3.71-1.06-1.33-.68-2.84-1.44-5.29-1.44Zm5.29-6.56C36.97 9.76 35.46 9 33.01 9s-3.96.76-5.29 1.44c-1.17.59-2.1 1.06-3.71 1.06-1.61 0-2.54-.47-3.71-1.06C18.97 9.76 17.46 9 15.01 9s-3.96.76-5.29 1.44c-1.17.59-2.1 1.06-3.71 1.06V15c2.45 0 3.96-.76 5.29-1.44 1.17-.59 2.1-1.06 3.71-1.06 1.61 0 2.54.47 3.71 1.06 1.33.67 2.84 1.44 5.29 1.44s3.96-.76 5.29-1.44c1.17-.59 2.1-1.06 3.71-1.06 1.61 0 2.54.47 3.71 1.06 1.33.67 2.84 1.44 5.29 1.44v-3.5c-1.61 0-2.54-.47-3.71-1.06Z"/></svg>