<svg xmlns="http://www.w3.org/2000/svg" width="48" height="48" fill="none"><path fill="url(#a)" fill-opacity=".95" fill-rule="evenodd" d="M47 16.5c0 8.358-6.662 15.171-15 15.488V32H11v-.002h-.143C5.413 31.999 1 27.617 1 22.21c0-5.406 4.413-9.789 9.857-9.789 1.89 0 3.654.528 5.154 1.444C17.271 6.559 23.678 1 31.393 1 40.013 1 47 7.94 47 16.5Z" clip-rule="evenodd"/><path fill="#5E5E5E" d="M21.979 35h-7.974c-.715 0-1.339.38-1.711 1.024a2.151 2.151 0 0 0-.05 2.079l3.986 7.789c.352.686 1.027 1.108 1.772 1.108.745 0 1.42-.422 1.772-1.108l3.986-7.79a2.178 2.178 0 0 0-.05-2.078C23.338 35.38 22.693 35 21.978 35Zm10.999-9h-7.973c-.715 0-1.34.38-1.712 1.024a2.151 2.151 0 0 0-.05 2.079l3.987 7.789C27.582 37.578 28.256 38 29 38c.745 0 1.42-.422 1.772-1.108l3.987-7.79a2.178 2.178 0 0 0-.05-2.078C34.337 26.38 33.693 26 32.978 26Zm11 9h-7.973c-.715 0-1.339.38-1.711 1.024a2.151 2.151 0 0 0-.05 2.079l3.986 7.789c.353.686 1.027 1.108 1.772 1.108.745 0 1.42-.422 1.772-1.108l3.986-7.79a2.178 2.178 0 0 0-.05-2.078C45.338 35.38 44.693 35 43.978 35Z"/><defs><radialGradient id="a" cx="0" cy="0" r="1" gradientTransform="matrix(-25.3955 -25.6181 61.62662 -61.09116 39.333 29.363)" gradientUnits="userSpaceOnUse"><stop offset=".298" stop-color="#B4B4B4"/><stop offset="1" stop-color="#E3E3E3"/></radialGradient></defs></svg>