<svg xmlns="http://www.w3.org/2000/svg" width="48" height="48" fill="none"><path fill="url(#a)" fill-rule="evenodd" d="M15.636 1c-1.687 2.053-2.71 4.653-2.71 7.493 0 6.627 5.527 12 12.355 12h.386C23.408 23.24 19.927 25 16.022 25 9.193 25 3.667 19.627 3.667 13c0-6.507 5.327-11.8 11.97-12Z" clip-rule="evenodd"/><path fill="url(#b)" fill-opacity=".92" fill-rule="evenodd" d="m21.13 31 5.752-11.4c.588-1.425 1.317-2.35 2.876-2.35h17.178c.038-.413.064-.825.064-1.25 0-8.287-6.991-15-15.606-15-7.72 0-14.123 5.375-15.389 12.45a10.065 10.065 0 0 0-5.15-1.4C5.41 12.05 1 16.288 1 21.525c0 5.025 4.064 9.125 9.203 9.45V31H21.13Z" clip-rule="evenodd"/><path fill="#0B57D0" d="m17 33-4.24 4.105a5.651 5.651 0 0 0 0 8.196c2.347 2.265 6.147 2.265 8.48 0a5.651 5.651 0 0 0 0-8.196l-.04-.04L17 33ZM7 22l-4.24 4.105a5.651 5.651 0 0 0 0 8.196c2.347 2.265 6.147 2.265 8.48 0a5.651 5.651 0 0 0 0-8.196l-.04-.04L7 22Z"/><path fill="url(#c)" fill-rule="evenodd" d="M30.667 21 24 34.754h6L29.253 47 44 30.958l-5.333-.026L44 21H30.667Z" clip-rule="evenodd"/><defs><linearGradient id="a" x1="1.754" x2="26.104" y1="1" y2="27.052" gradientUnits="userSpaceOnUse"><stop stop-color="#A8C7FA"/><stop offset=".461" stop-color="#4C8DF6"/></linearGradient><linearGradient id="c" x1="30.5" x2="41.96" y1="22" y2="44.459" gradientUnits="userSpaceOnUse"><stop stop-color="#FCB224"/><stop offset=".557" stop-color="#E47100"/></linearGradient><radialGradient id="b" cx="0" cy="0" r="1" gradientTransform="matrix(-25.39597 -24.79154 59.6232 -61.07683 39.333 28.448)" gradientUnits="userSpaceOnUse"><stop offset=".298" stop-color="#898989"/><stop offset="1" stop-color="#E3E3E3"/></radialGradient></defs></svg>