<svg xmlns="http://www.w3.org/2000/svg" width="48" height="48" fill="none"><path fill="url(#a)" fill-rule="evenodd" d="M23.85 1c-3.232 3.937-5.164 8.932-5.164 14.367 0 12.706 10.558 23.006 23.582 23.006.245 0 .489-.004.732-.01C38.678 43.627 32.034 47 24.582 47 11.558 47 1 36.7 1 23.995 1 11.528 11.164 1.377 23.85 1Z" clip-rule="evenodd"/><path fill="url(#b)" fill-opacity=".95" fill-rule="evenodd" d="M47 35c0 6.225-4.824 11.343-11 11.941V47H19v-.006a9.04 9.04 0 0 1-.286.005c-4.26 0-7.714-3.393-7.714-7.579s3.454-7.579 7.714-7.579a7.78 7.78 0 0 1 4.034 1.118c.986-5.655 6-9.959 12.038-9.959C41.532 23 47 28.373 47 35Z" clip-rule="evenodd"/><defs><radialGradient id="b" cx="0" cy="0" r="1" gradientTransform="matrix(-15.90012 -16.19986 38.90525 -38.1854 39.5 47)" gradientUnits="userSpaceOnUse"><stop stop-color="#A0A0A0"/><stop offset=".38" stop-color="#CCC"/><stop offset="1" stop-color="#fff"/></radialGradient><linearGradient id="a" x1="-2.652" x2="44.031" y1="1" y2="50.749" gradientUnits="userSpaceOnUse"><stop stop-color="#A8C7FA"/><stop offset=".413" stop-color="#4C8DF6"/></linearGradient></defs></svg>