<svg xmlns="http://www.w3.org/2000/svg" width="48" height="48" fill="none"><path fill="url(#a)" d="M33.994 7.163a8.013 8.013 0 0 1 7.45 7.451 8.012 8.012 0 0 0 1.958 4.725 8.013 8.013 0 0 1 0 10.537 8.012 8.012 0 0 0-1.957 4.726 8.013 8.013 0 0 1-7.451 7.45 8.012 8.012 0 0 0-4.726 1.958 8.012 8.012 0 0 1-10.537 0 8.012 8.012 0 0 0-4.725-1.957 8.013 8.013 0 0 1-7.45-7.451 8.012 8.012 0 0 0-1.958-4.726 8.013 8.013 0 0 1 0-10.537 8.013 8.013 0 0 0 1.957-4.725 8.013 8.013 0 0 1 7.451-7.45 8.013 8.013 0 0 0 4.726-1.958 8.012 8.012 0 0 1 10.537 0 8.013 8.013 0 0 0 4.725 1.957Z"/><path fill="url(#b)" fill-opacity=".95" fill-rule="evenodd" d="M46 36c0 5.322-4.232 9.673-9.57 9.982V46h-.5a9.775 9.775 0 0 1-.217 0h-13.21a6.253 6.253 0 0 1-.15 0h-.355v-.013C18.648 45.768 16 43.03 16 39.684c0-3.488 2.878-6.316 6.428-6.316 1.232 0 2.384.341 3.362.931.822-4.712 5-8.299 10.032-8.299C41.442 26 46 30.477 46 36Z" clip-rule="evenodd"/><defs><radialGradient id="a" cx="0" cy="0" r="1" gradientTransform="matrix(15.5907 21.71092 -21.6997 15.58266 10.362 10.69)" gradientUnits="userSpaceOnUse"><stop offset=".016" stop-color="#FFBB29"/><stop offset=".393" stop-color="#FCB224"/><stop offset=".967" stop-color="#E47100"/></radialGradient><radialGradient id="b" cx="0" cy="0" r="1" gradientTransform="matrix(-19.50006 -21 50.43304 -46.83084 46 53.5)" gradientUnits="userSpaceOnUse"><stop stop-color="#B9B4AE"/><stop offset="1" stop-color="#fff"/></radialGradient></defs></svg>