<svg xmlns="http://www.w3.org/2000/svg" width="48" height="48" fill="none"><path fill="url(#a)" fill-rule="evenodd" d="M16.688 2c-2.076 2.51-3.319 5.696-3.319 9.162 0 8.102 6.787 14.67 15.16 14.67a16 16 0 0 0 .47-.007c-2.778 3.358-7.05 5.508-11.84 5.508C8.787 31.333 2 24.765 2 16.663 2 8.713 8.534 2.241 16.688 2Z" clip-rule="evenodd"/><path fill="url(#b)" fill-opacity=".95" fill-rule="evenodd" d="M47 31c0 7.982-6.489 14.509-14.674 14.972V46h-22.13v-.02C5.061 45.652 1 41.544 1 36.526c0-5.232 4.413-9.473 9.857-9.473 1.89 0 3.654.51 5.154 1.396C17.27 21.38 23.678 16 31.393 16 40.013 16 47 22.715 47 31Z" clip-rule="evenodd"/><defs><radialGradient id="b" cx="0" cy="0" r="1" gradientTransform="rotate(-134.297 25.502 14.13) scale(23.0534 55.4078)" gradientUnits="userSpaceOnUse"><stop stop-color="#A0A0A0"/><stop offset=".38" stop-color="#CCC"/><stop offset="1" stop-color="#fff"/></radialGradient><linearGradient id="a" x1="-.348" x2="29.405" y1="2" y2="33.963" gradientUnits="userSpaceOnUse"><stop stop-color="#A8C7FA"/><stop offset=".461" stop-color="#4C8DF6"/></linearGradient></defs></svg>