<svg xmlns="http://www.w3.org/2000/svg" width="48" height="48" fill="none"><path fill="url(#a)" d="M20.83 5.623a4.674 4.674 0 0 1 4.346 4.346 4.674 4.674 0 0 0 1.142 2.757 4.674 4.674 0 0 1 0 6.146 4.674 4.674 0 0 0-1.142 2.757 4.674 4.674 0 0 1-4.346 4.346 4.674 4.674 0 0 0-2.757 1.142 4.674 4.674 0 0 1-6.146 0 4.674 4.674 0 0 0-2.757-1.142 4.674 4.674 0 0 1-4.346-4.346 4.674 4.674 0 0 0-1.142-2.757 4.674 4.674 0 0 1 0-6.146 4.674 4.674 0 0 0 1.142-2.757A4.674 4.674 0 0 1 9.17 5.623a4.674 4.674 0 0 0 2.757-1.142 4.674 4.674 0 0 1 6.146 0 4.674 4.674 0 0 0 2.757 1.142Z"/><path fill="url(#b)" fill-opacity=".95" fill-rule="evenodd" d="M47 16.5c0 8.358-6.662 15.171-15 15.488V32H11v-.002h-.143C5.413 31.999 1 27.617 1 22.21s4.413-9.79 9.857-9.79c1.89 0 3.654.528 5.154 1.444C17.271 6.559 23.679 1 31.393 1 40.013 1 47 7.94 47 16.5Z" clip-rule="evenodd"/><path fill="#0B57D0" d="m23 20-4.243 4.1a5.663 5.663 0 0 0 0 8.202c2.343 2.264 6.142 2.264 8.485 0a5.663 5.663 0 0 0-.037-8.237L23 20Zm8 13-4.243 4.1a5.663 5.663 0 0 0 0 8.202c2.343 2.264 6.142 2.264 8.485 0a5.663 5.663 0 0 0-.037-8.237L31 33Zm10-13-4.243 4.1a5.663 5.663 0 0 0 0 8.201c2.344 2.265 6.143 2.265 8.486 0a5.663 5.663 0 0 0 0-8.2l-.038-.036L41 20Z"/><defs><radialGradient id="a" cx="0" cy="0" r="1" gradientTransform="rotate(63.555 -.137 8.694) scale(23.0007)" gradientUnits="userSpaceOnUse"><stop stop-color="#FFBB29"/><stop offset=".27" stop-color="#FCB224"/><stop offset=".524" stop-color="#E47100"/></radialGradient><radialGradient id="b" cx="0" cy="0" r="1" gradientTransform="rotate(-134.75 25.785 6.485) scale(36.0727 86.7759)" gradientUnits="userSpaceOnUse"><stop offset=".298" stop-color="#B4B4B4"/><stop offset="1" stop-color="#E3E3E3"/></radialGradient></defs></svg>