<svg xmlns="http://www.w3.org/2000/svg" width="49" height="49" fill="none"><path fill="url(#a)" d="M26.27 42.417v-.008l-.508.007h-.077a5.328 5.328 0 0 1-5.094-3.728c-.115-.37.017-.809.358-1.152l5.078-5.12c.337-.34.769-.478 1.14-.372.464.133.902.328 1.305.574L29.1 33l.126-.725c.704-4.082 4.287-7.193 8.604-7.193 4.825 0 8.73 3.884 8.73 8.667 0 4.67-3.723 8.483-8.39 8.66l-.18.007H26.27Z"/><path stroke="url(#b)" d="M26.27 42.417v-.008l-.508.007h-.077a5.328 5.328 0 0 1-5.094-3.728c-.115-.37.017-.809.358-1.152l5.078-5.12c.337-.34.769-.478 1.14-.372.464.133.902.328 1.305.574L29.1 33l.126-.725c.704-4.082 4.287-7.193 8.604-7.193 4.825 0 8.73 3.884 8.73 8.667 0 4.67-3.723 8.483-8.39 8.66l-.18.007H26.27Z"/><path stroke="url(#c)" d="M26.27 42.417v-.008l-.508.007h-.077a5.328 5.328 0 0 1-5.094-3.728c-.115-.37.017-.809.358-1.152l5.078-5.12c.337-.34.769-.478 1.14-.372.464.133.902.328 1.305.574L29.1 33l.126-.725c.704-4.082 4.287-7.193 8.604-7.193 4.825 0 8.73 3.884 8.73 8.667 0 4.67-3.723 8.483-8.39 8.66l-.18.007H26.27Z"/><path fill="url(#d)" d="M28.2 12.373a5.247 5.247 0 0 0-4.878-4.88 5.247 5.247 0 0 1-3.095-1.282 5.247 5.247 0 0 0-6.9 0 5.247 5.247 0 0 1-3.095 1.282 5.247 5.247 0 0 0-4.88 4.88 5.247 5.247 0 0 1-1.282 3.094 5.247 5.247 0 0 0 0 6.9 5.247 5.247 0 0 1 1.282 3.095 5.247 5.247 0 0 0 4.88 4.88"/><path fill="#ABABAB" fill-rule="evenodd" d="m39.077 11.445-27.768 28-1.065-1.056 27.768-28 1.065 1.056Z" clip-rule="evenodd"/><defs><radialGradient id="a" cx="0" cy="0" r="1" gradientTransform="matrix(-14.91225 -15.151 36.4439 -35.86963 42.559 41.357)" gradientUnits="userSpaceOnUse"><stop stop-color="#B4B4B4"/><stop offset=".298" stop-color="#B4B4B4"/><stop offset="1" stop-color="#E3E3E3"/></radialGradient><radialGradient id="d" cx="0" cy="0" r="1" gradientTransform="matrix(12.96927 15.7157 -18.09017 14.92878 6.428 8.403)" gradientUnits="userSpaceOnUse"><stop stop-color="#FFBB29"/><stop offset=".481" stop-color="#FCB224"/><stop offset=".99" stop-color="#E47100"/></radialGradient><linearGradient id="b" x1="37.078" x2="41.237" y1="33.158" y2="42.007" gradientUnits="userSpaceOnUse"><stop stop-color="#80868B" stop-opacity="0"/><stop offset="1" stop-color="#80868B"/></linearGradient><linearGradient id="c" x1="43.831" x2="22.359" y1="24.583" y2="32.76" gradientUnits="userSpaceOnUse"><stop stop-color="#81878C"/><stop offset="1" stop-color="#C3C5C6" stop-opacity="0"/></linearGradient></defs></svg>