<svg xmlns="http://www.w3.org/2000/svg" width="49" height="49" fill="none"><g clip-path="url(#a)"><path fill="url(#b)" d="M27.04 5.521a6.21 6.21 0 0 1 5.775 5.775 6.21 6.21 0 0 0 1.517 3.662 6.21 6.21 0 0 1 0 8.166 6.21 6.21 0 0 0-1.517 3.662 6.21 6.21 0 0 1-5.775 5.774 6.21 6.21 0 0 0-3.662 1.517 6.21 6.21 0 0 1-8.166 0 6.21 6.21 0 0 0-3.662-1.517 6.21 6.21 0 0 1-5.774-5.774 6.21 6.21 0 0 0-1.517-3.662 6.21 6.21 0 0 1 0-8.166 6.21 6.21 0 0 0 1.517-3.662A6.21 6.21 0 0 1 11.55 5.52a6.21 6.21 0 0 0 3.662-1.517 6.21 6.21 0 0 1 8.166 0A6.21 6.21 0 0 0 27.04 5.52Z"/><path fill="url(#c)" fill-rule="evenodd" d="M28.035 35.971c-.46 2.787.421 5.74 2.644 7.889 3.682 3.56 9.653 3.56 13.336 0 3.682-3.56 3.682-9.33 0-12.89a7.825 7.825 0 0 0-.06-.056l-6.419-6.204a9.805 9.805 0 0 1-.567.715 2.71 2.71 0 0 0-.662 1.598 9.71 9.71 0 0 1-8.272 8.948Z" clip-rule="evenodd"/></g><defs><radialGradient id="b" cx="0" cy="0" r="1" gradientTransform="rotate(64.537 -4.596 19.93) scale(18.2404)" gradientUnits="userSpaceOnUse"><stop offset=".016" stop-color="#FFBB29"/><stop offset=".531" stop-color="#FCB224"/><stop offset=".99" stop-color="#E47100"/></radialGradient><linearGradient id="c" x1="37.347" x2="37.347" y1="24.526" y2="45.646" gradientUnits="userSpaceOnUse"><stop stop-color="#2E7AF5"/><stop offset="1" stop-color="#0B57D0"/></linearGradient><clipPath id="a"><path fill="#fff" d="M.777.53h48v48h-48z"/></clipPath></defs></svg>