<svg xmlns="http://www.w3.org/2000/svg" width="48" height="48" fill="none"><path fill="#757575" fill-rule="evenodd" d="M24 39c-9.539 0-15.962-7.19-18.993-11.578a5.821 5.821 0 0 1-.024-6.636C8.003 16.336 14.436 9 24 9c9.565 0 15.996 7.337 19.017 11.786a5.821 5.821 0 0 1-.024 6.636C39.962 31.81 33.539 39 24 39Z" clip-rule="evenodd"/><path fill="#757575" stroke="#757575" d="M20.5 1.55a1 1 0 1 0 0 2c11.123 0 20.14 9.018 20.14 20.14a1 1 0 1 0 2 0c0-12.227-9.913-22.14-22.14-22.14Zm-15 22.9a1 1 0 1 1 2 0c0 11.123 9.018 20.14 20.14 20.14a1 1 0 1 1 0 2c-12.227 0-22.14-9.912-22.14-22.14Z"/><path fill="#fff" d="M24 36c6.627 0 12-5.373 12-12s-5.373-12-12-12-12 5.373-12 12 5.373 12 12 12Z"/><path fill="#757575" stroke="#757575" d="M18.25 24a5.75 5.75 0 1 1 11.5 0 5.75 5.75 0 0 1-11.5 0ZM24 16.25a7.75 7.75 0 1 0 0 15.5 7.75 7.75 0 0 0 0-15.5Z"/></svg>