<svg xmlns="http://www.w3.org/2000/svg" width="48" height="48" fill="none"><path fill="#ABABAB" fill-rule="evenodd" d="M35.577 4a6.5 6.5 0 0 0-6.5 6.5v19.358A9.971 9.971 0 0 0 26 37.076c0 5.523 4.477 10 10 10s10-4.477 10-10a9.97 9.97 0 0 0-3.077-7.215V10.5a6.5 6.5 0 0 0-6.5-6.5h-.846Z" clip-rule="evenodd"/><path fill="#fff" fill-rule="evenodd" d="M36.001 6.513a3.75 3.75 0 0 0-3.75 3.75V31.27a6.923 6.923 0 1 0 7.5 0V10.262a3.75 3.75 0 0 0-3.75-3.75Z" clip-rule="evenodd"/><rect width="7.5" height="7.5" x="32.251" y="34.003" fill="#EA4335" rx="3.75"/><rect width="2.667" height="24" x="34.667" y="12" fill="#EA4335" rx="1.333"/><path fill="url(#a)" fill-rule="evenodd" d="M24.903 44.17a7.92 7.92 0 0 1-8.983-.996 7.918 7.918 0 0 0-4.67-1.934 7.918 7.918 0 0 1-7.363-7.363 7.919 7.919 0 0 0-1.935-4.67 7.918 7.918 0 0 1 0-10.413 7.919 7.919 0 0 0 1.935-4.67 7.918 7.918 0 0 1 7.363-7.363 7.919 7.919 0 0 0 4.67-1.934 7.918 7.918 0 0 1 10.413 0c.212.184.432.357.66.517a9.186 9.186 0 0 0-.779 3.718V27.62c-2.214 3.414-3.088 5.893-3.088 10.031 0 2.395.599 4.628 1.777 6.519Z" clip-rule="evenodd"/><defs><radialGradient id="a" cx="0" cy="0" r="1" gradientTransform="rotate(130.956 15.583 12.847) scale(35.0892 47.2165)" gradientUnits="userSpaceOnUse"><stop offset=".064" stop-color="#FFD323"/><stop offset=".62" stop-color="#EA6A16"/><stop offset="1" stop-color="#EA4335"/></radialGradient></defs></svg>