<?xml version="1.0" encoding="UTF-8"?>
<!DOCTYPE svg PUBLIC "-//W3C//DTD SVG 1.1//EN" "http://www.w3.org/Graphics/SVG/1.1/DTD/svg11.dtd">
<svg xmlns="http://www.w3.org/2000/svg" version="1.1" width="148px" height="148px" style="shape-rendering:geometricPrecision; text-rendering:geometricPrecision; image-rendering:optimizeQuality; fill-rule:evenodd; clip-rule:evenodd" xmlns:xlink="http://www.w3.org/1999/xlink">
<g><path style="opacity:0.996" fill="#eff6bc" d="M 65.5,0.5 C 65.5,0.166667 65.5,-0.166667 65.5,-0.5C 69.8333,-0.5 74.1667,-0.5 78.5,-0.5C 80.0326,1.24512 82.0326,2.24512 84.5,2.5C 85.4916,2.32842 86.1583,2.66175 86.5,3.5C 79.6703,1.52912 72.6703,0.529117 65.5,0.5 Z"/></g>
<g><path style="opacity:0.588" fill="#f3f7e4" d="M 65.5,0.5 C 65.0269,1.90632 64.0269,2.57298 62.5,2.5C 62.9731,1.09368 63.9731,0.427017 65.5,0.5 Z"/></g>
<g><path style="opacity:0.141" fill="#f5f8e8" d="M 78.5,-0.5 C 79.5,-0.5 80.5,-0.5 81.5,-0.5C 82.6935,0.271873 83.6935,1.27187 84.5,2.5C 82.0326,2.24512 80.0326,1.24512 78.5,-0.5 Z"/></g>
<g><path style="opacity:0.369" fill="#f6f9ec" d="M 62.5,2.5 C 61.4863,3.67373 60.153,4.3404 58.5,4.5C 59.287,2.89578 60.6203,2.22911 62.5,2.5 Z"/></g>
<g><path style="opacity:0.036" fill="#f9faf1" d="M 58.5,4.5 C 56.8984,6.07394 54.8984,6.74061 52.5,6.5C 48.1311,6.46716 43.7978,6.80049 39.5,7.5C 40.2625,6.73209 41.2625,6.23209 42.5,6C 47.8657,5.67726 53.1991,5.17726 58.5,4.5 Z"/></g>
<g><path style="opacity:0.034" fill="#f9faf0" d="M 88.5,4.5 C 93.8009,5.17726 99.1343,5.67726 104.5,6C 105.737,6.23209 106.737,6.73209 107.5,7.5C 102.203,6.72546 96.8699,6.39212 91.5,6.5C 89.9731,6.57298 88.9731,5.90632 88.5,4.5 Z"/></g>
<g><path style="opacity:0.114" fill="#f7f9ee" d="M 107.5,7.5 C 109.38,7.22911 110.713,7.89578 111.5,9.5C 109.847,9.3404 108.514,8.67373 107.5,7.5 Z"/></g>
<g><path style="opacity:0.49" fill="#f5f8e9" d="M 39.5,7.5 C 38.4863,8.67373 37.153,9.3404 35.5,9.5C 36.287,7.89578 37.6203,7.22911 39.5,7.5 Z"/></g>
<g><path style="opacity:1" fill="#eff89b" d="M 65.5,0.5 C 72.6703,0.529117 79.6703,1.52912 86.5,3.5C 87.4916,3.32842 88.1583,3.66175 88.5,4.5C 88.9731,5.90632 89.9731,6.57298 91.5,6.5C 96.9649,7.9899 102.632,9.15656 108.5,10C 111.729,12.7411 115.062,15.2411 118.5,17.5C 118.427,19.0269 119.094,20.0269 120.5,20.5C 121.754,23.0934 123.42,25.4268 125.5,27.5C 126.007,28.8589 127.007,29.8589 128.5,30.5C 127.54,31.8123 127.706,33.1456 129,34.5C 129.308,33.6919 129.808,33.0253 130.5,32.5C 132.472,33.3052 133.972,34.6385 135,36.5C 137.737,43.898 139.404,51.5647 140,59.5C 141.632,63.346 142.966,67.346 144,71.5C 145.487,70.2586 146.32,70.7586 146.5,73C 146.682,75.3038 146.016,75.8038 144.5,74.5C 142.171,76.3501 141.837,78.5168 143.5,81C 141.602,83.4205 140.602,86.2538 140.5,89.5C 140.5,90.5 140.5,91.5 140.5,92.5C 139.33,98.7551 137.997,105.088 136.5,111.5C 134.833,113.5 133.167,115.5 131.5,117.5C 131.158,118.338 130.492,118.672 129.5,118.5C 127.973,118.427 126.973,119.094 126.5,120.5C 123.5,121.5 121.5,123.5 120.5,126.5C 119.094,126.973 118.427,127.973 118.5,129.5C 118.672,130.492 118.338,131.158 117.5,131.5C 115.5,133.167 113.5,134.833 111.5,136.5C 102.88,137.886 94.2131,139.053 85.5,140C 80.1663,145.963 73.4996,148.13 65.5,146.5C 65.1667,145.833 64.8333,145.167 64.5,144.5C 63.1394,142.143 61.1394,140.476 58.5,139.5C 52.8333,138.833 47.1667,138.167 41.5,137.5C 39.2259,134.566 36.2259,132.899 32.5,132.5C 32.6602,130.801 32.4935,129.134 32,127.5C 31.586,127.957 31.086,128.291 30.5,128.5C 29.7174,126.712 28.3841,125.712 26.5,125.5C 25.0892,123.086 23.0892,121.419 20.5,120.5C 20.0269,119.094 19.0269,118.427 17.5,118.5C 15.9488,115.437 13.7821,112.771 11,110.5C 10.1779,108.212 9.5112,105.878 9,103.5C 8.79634,96.1571 8.79634,88.8238 9,81.5C 7.62333,79.2462 6.12333,77.0795 4.5,75C 3.20677,74.51 1.87344,74.3433 0.5,74.5C 2.17602,70.0676 3.50935,65.401 4.5,60.5C 4.5,59.8333 4.5,59.1667 4.5,58.5C 6.16276,56.5615 6.82943,54.2282 6.5,51.5C 7.70514,45.3234 9.70514,39.3234 12.5,33.5C 13.5,32.1667 14.5,30.8333 15.5,29.5C 15.8417,28.6618 16.5084,28.3284 17.5,28.5C 21.7671,27.2316 24.7671,24.5649 26.5,20.5C 27.1667,20.1667 27.8333,19.8333 28.5,19.5C 30.8927,18.6473 32.226,16.9806 32.5,14.5C 33.552,14.6495 34.552,14.4828 35.5,14C 37.208,11.9565 39.208,10.2899 41.5,9C 45.4651,8.8923 49.1317,8.05897 52.5,6.5C 54.8984,6.74061 56.8984,6.07394 58.5,4.5C 60.153,4.3404 61.4863,3.67373 62.5,2.5C 64.0269,2.57298 65.0269,1.90632 65.5,0.5 Z"/></g>
<g><path style="opacity:1" fill="#ebf5b1" d="M 91.5,6.5 C 96.8699,6.39212 102.203,6.72546 107.5,7.5C 108.514,8.67373 109.847,9.3404 111.5,9.5C 113.167,11.8333 115.167,13.8333 117.5,15.5C 118.338,15.8417 118.672,16.5084 118.5,17.5C 115.062,15.2411 111.729,12.7411 108.5,10C 102.632,9.15656 96.9649,7.9899 91.5,6.5 Z"/></g>
<g><path style="opacity:0.027" fill="#f6f8eb" d="M 111.5,9.5 C 114.5,10.5 116.5,12.5 117.5,15.5C 115.167,13.8333 113.167,11.8333 111.5,9.5 Z"/></g>
<g><path style="opacity:1" fill="#ecf6ad" d="M 52.5,6.5 C 49.1317,8.05897 45.4651,8.8923 41.5,9C 39.208,10.2899 37.208,11.9565 35.5,14C 34.552,14.4828 33.552,14.6495 32.5,14.5C 32.226,16.9806 30.8927,18.6473 28.5,19.5C 28.5,18.8333 28.5,18.1667 28.5,17.5C 28.3284,16.5084 28.6618,15.8417 29.5,15.5C 31.8333,13.8333 33.8333,11.8333 35.5,9.5C 37.153,9.3404 38.4863,8.67373 39.5,7.5C 43.7978,6.80049 48.1311,6.46716 52.5,6.5 Z"/></g>
<g><path style="opacity:0.525" fill="#f3f7e5" d="M 35.5,9.5 C 33.8333,11.8333 31.8333,13.8333 29.5,15.5C 30.5,12.5 32.5,10.5 35.5,9.5 Z"/></g>
<g><path style="opacity:0.357" fill="#f4f7e6" d="M 28.5,17.5 C 28.5,18.1667 28.5,18.8333 28.5,19.5C 27.8333,19.8333 27.1667,20.1667 26.5,20.5C 26.427,18.9731 27.0937,17.9731 28.5,17.5 Z"/></g>
<g><path style="opacity:0.365" fill="#f3f7e4" d="M 118.5,17.5 C 119.906,17.9731 120.573,18.9731 120.5,20.5C 119.094,20.0269 118.427,19.0269 118.5,17.5 Z"/></g>
<g><path style="opacity:0.427" fill="#f3f7e3" d="M 26.5,20.5 C 24.7671,24.5649 21.7671,27.2316 17.5,28.5C 20.4744,25.8621 23.4744,23.1954 26.5,20.5 Z"/></g>
<g><path style="opacity:0.42" fill="#f5f8e7" d="M 120.5,20.5 C 123.526,23.1954 126.526,25.8621 129.5,28.5C 128.167,28.1667 126.833,27.8333 125.5,27.5C 123.42,25.4268 121.754,23.0934 120.5,20.5 Z"/></g>
<g><path style="opacity:0.012" fill="#f7faee" d="M 131.5,29.5 C 133.404,29.7376 134.738,30.7376 135.5,32.5C 133.596,32.2624 132.262,31.2624 131.5,29.5 Z"/></g>
<g><path style="opacity:0.31" fill="#f6f8eb" d="M 135.5,32.5 C 136.906,32.9731 137.573,33.9731 137.5,35.5C 136.094,35.0269 135.427,34.0269 135.5,32.5 Z"/></g>
<g><path style="opacity:0.129" fill="#f5f8eb" d="M 15.5,29.5 C 14.5,30.8333 13.5,32.1667 12.5,33.5C 10.3567,35.1307 8.68999,37.1307 7.5,39.5C 8.32098,34.6801 10.9876,31.3467 15.5,29.5 Z"/></g>
<g><path style="opacity:0.04" fill="#f9faf3" d="M 7.5,39.5 C 6.83787,43.4659 6.50454,47.4659 6.5,51.5C 6.82943,54.2282 6.16276,56.5615 4.5,58.5C 5.17726,53.1991 5.67726,47.8657 6,42.5C 6.23209,41.2625 6.73209,40.2625 7.5,39.5 Z"/></g>
<g><path style="opacity:0.999" fill="#eaf5b3" d="M 12.5,33.5 C 9.70514,39.3234 7.70514,45.3234 6.5,51.5C 6.50454,47.4659 6.83787,43.4659 7.5,39.5C 8.68999,37.1307 10.3567,35.1307 12.5,33.5 Z"/></g>
<g><path style="opacity:0.047" fill="#f9fbf2" d="M 137.5,35.5 C 139.311,37.3854 140.478,39.7187 141,42.5C 141.323,47.8657 141.823,53.1991 142.5,58.5C 141.778,58.0825 141.278,57.4158 141,56.5C 141.074,49.2566 139.908,42.2566 137.5,35.5 Z"/></g>
<g><path style="opacity:0.165" fill="#f6f9ed" d="M 4.5,58.5 C 4.5,59.1667 4.5,59.8333 4.5,60.5C 3.83333,61.1667 3.16667,61.8333 2.5,62.5C 2.22911,60.6203 2.89578,59.287 4.5,58.5 Z"/></g>
<g><path style="opacity:0.161" fill="#f5f9ee" d="M 142.5,58.5 C 144.104,59.287 144.771,60.6203 144.5,62.5C 143.326,61.4863 142.66,60.153 142.5,58.5 Z"/></g>
<g><path style="opacity:1" fill="#ebf6b5" d="M 4.5,60.5 C 3.50935,65.401 2.17602,70.0676 0.5,74.5C 0.5,75.8333 0.5,77.1667 0.5,78.5C 0.166667,78.5 -0.166667,78.5 -0.5,78.5C -0.5,74.1667 -0.5,69.8333 -0.5,65.5C -0.166667,65.5 0.166667,65.5 0.5,65.5C 1.90632,65.0269 2.57298,64.0269 2.5,62.5C 3.16667,61.8333 3.83333,61.1667 4.5,60.5 Z"/></g>
<g><path style="opacity:1" fill="#edf6aa" d="M 125.5,27.5 C 126.833,27.8333 128.167,28.1667 129.5,28.5C 130.492,28.3284 131.158,28.6618 131.5,29.5C 132.262,31.2624 133.596,32.2624 135.5,32.5C 135.427,34.0269 136.094,35.0269 137.5,35.5C 139.908,42.2566 141.074,49.2566 141,56.5C 141.278,57.4158 141.778,58.0825 142.5,58.5C 142.66,60.153 143.326,61.4863 144.5,62.5C 144.427,64.0269 145.094,65.0269 146.5,65.5C 146.833,65.5 147.167,65.5 147.5,65.5C 147.5,69.8333 147.5,74.1667 147.5,78.5C 145.992,80.1815 144.992,82.1815 144.5,84.5C 143.326,85.5137 142.66,86.847 142.5,88.5C 141.833,88.8333 141.167,89.1667 140.5,89.5C 140.602,86.2538 141.602,83.4205 143.5,81C 141.837,78.5168 142.171,76.3501 144.5,74.5C 146.016,75.8038 146.682,75.3038 146.5,73C 146.32,70.7586 145.487,70.2586 144,71.5C 142.966,67.346 141.632,63.346 140,59.5C 139.404,51.5647 137.737,43.898 135,36.5C 133.972,34.6385 132.472,33.3052 130.5,32.5C 129.808,33.0253 129.308,33.6919 129,34.5C 127.706,33.1456 127.54,31.8123 128.5,30.5C 127.007,29.8589 126.007,28.8589 125.5,27.5 Z"/></g>
<g><path style="opacity:0.239" fill="#f5f9ea" d="M 2.5,62.5 C 2.57298,64.0269 1.90632,65.0269 0.5,65.5C 0.427017,63.9731 1.09368,62.9731 2.5,62.5 Z"/></g>
<g><path style="opacity:0.227" fill="#f6f9eb" d="M 144.5,62.5 C 145.906,62.9731 146.573,63.9731 146.5,65.5C 145.094,65.0269 144.427,64.0269 144.5,62.5 Z"/></g>
<g><path style="opacity:1" fill="#edf7a5" d="M 0.5,74.5 C 1.87344,74.3433 3.20677,74.51 4.5,75C 6.12333,77.0795 7.62333,79.2462 9,81.5C 8.79634,88.8238 8.79634,96.1571 9,103.5C 9.5112,105.878 10.1779,108.212 11,110.5C 13.7821,112.771 15.9488,115.437 17.5,118.5C 16.5084,118.672 15.8417,118.338 15.5,117.5C 13.8333,115.167 11.8333,113.167 9.5,111.5C 9.3404,109.847 8.67373,108.514 7.5,107.5C 6.92416,101.515 6.42416,95.5147 6,89.5C 5.61742,88.944 5.11742,88.6107 4.5,88.5C 4.3404,86.847 3.67373,85.5137 2.5,84.5C 2.02935,82.4214 1.36268,80.4214 0.5,78.5C 0.5,77.1667 0.5,75.8333 0.5,74.5 Z"/></g>
<g><path style="opacity:0.239" fill="#f5f8e9" d="M 147.5,78.5 C 147.5,79.5 147.5,80.5 147.5,81.5C 146.728,82.6935 145.728,83.6935 144.5,84.5C 144.992,82.1815 145.992,80.1815 147.5,78.5 Z"/></g>
<g><path style="opacity:0.165" fill="#f4f7e6" d="M -0.5,78.5 C -0.166667,78.5 0.166667,78.5 0.5,78.5C 1.36268,80.4214 2.02935,82.4214 2.5,84.5C 1.27187,83.6935 0.271873,82.6935 -0.5,81.5C -0.5,80.5 -0.5,79.5 -0.5,78.5 Z"/></g>
<g><path style="opacity:0.169" fill="#f7f9ee" d="M 2.5,84.5 C 3.67373,85.5137 4.3404,86.847 4.5,88.5C 2.89578,87.713 2.22911,86.3797 2.5,84.5 Z"/></g>
<g><path style="opacity:0.055" fill="#f8faf1" d="M 144.5,84.5 C 144.771,86.3797 144.104,87.713 142.5,88.5C 142.66,86.847 143.326,85.5137 144.5,84.5 Z"/></g>
<g><path style="opacity:0.038" fill="#f8faef" d="M 4.5,88.5 C 5.11742,88.6107 5.61742,88.944 6,89.5C 6.42416,95.5147 6.92416,101.515 7.5,107.5C 6.73209,106.737 6.23209,105.737 6,104.5C 5.67726,99.1343 5.17726,93.8009 4.5,88.5 Z"/></g>
<g><path style="opacity:0.043" fill="#f8faf0" d="M 142.5,88.5 C 141.812,94.1339 141.312,99.8005 141,105.5C 140.284,107.879 139.117,109.879 137.5,111.5C 140.09,105.464 141.09,99.1305 140.5,92.5C 140.5,91.5 140.5,90.5 140.5,89.5C 141.167,89.1667 141.833,88.8333 142.5,88.5 Z"/></g>
<g><path style="opacity:1" fill="#ecf5b2" d="M 140.5,92.5 C 141.09,99.1305 140.09,105.464 137.5,111.5C 137.167,111.5 136.833,111.5 136.5,111.5C 137.997,105.088 139.33,98.7551 140.5,92.5 Z"/></g>
<g><path style="opacity:0.125" fill="#f7f9ed" d="M 7.5,107.5 C 8.67373,108.514 9.3404,109.847 9.5,111.5C 7.89578,110.713 7.22911,109.38 7.5,107.5 Z"/></g>
<g><path style="opacity:0.031" fill="#f5f8ea" d="M 9.5,111.5 C 11.8333,113.167 13.8333,115.167 15.5,117.5C 12.5,116.5 10.5,114.5 9.5,111.5 Z"/></g>
<g><path style="opacity:0.067" fill="#f8faee" d="M 136.5,111.5 C 136.833,111.5 137.167,111.5 137.5,111.5C 136.5,114.5 134.5,116.5 131.5,117.5C 133.167,115.5 134.833,113.5 136.5,111.5 Z"/></g>
<g><path style="opacity:0.357" fill="#f2f6e4" d="M 17.5,118.5 C 19.0269,118.427 20.0269,119.094 20.5,120.5C 18.9731,120.573 17.9731,119.906 17.5,118.5 Z"/></g>
<g><path style="opacity:0.055" fill="#f7f9ed" d="M 129.5,118.5 C 129.027,119.906 128.027,120.573 126.5,120.5C 126.973,119.094 127.973,118.427 129.5,118.5 Z"/></g>
<g><path style="opacity:0.427" fill="#f5f8e8" d="M 20.5,120.5 C 23.0892,121.419 25.0892,123.086 26.5,125.5C 26.5,125.833 26.5,126.167 26.5,126.5C 24.1667,124.833 22.1667,122.833 20.5,120.5 Z"/></g>
<g><path style="opacity:0.043" fill="#f7faee" d="M 126.5,120.5 C 124.833,122.833 122.833,124.833 120.5,126.5C 121.5,123.5 123.5,121.5 126.5,120.5 Z"/></g>
<g><path style="opacity:0.224" fill="#f5f7e8" d="M 26.5,126.5 C 27.9063,126.973 28.573,127.973 28.5,129.5C 27.0937,129.027 26.427,128.027 26.5,126.5 Z"/></g>
<g><path style="opacity:0.208" fill="#f5f9e8" d="M 120.5,126.5 C 120.573,128.027 119.906,129.027 118.5,129.5C 118.427,127.973 119.094,126.973 120.5,126.5 Z"/></g>
<g><path style="opacity:0.016" fill="#f7f9ed" d="M 29.5,131.5 C 31.2624,132.262 32.2624,133.596 32.5,135.5C 30.7376,134.738 29.7376,133.404 29.5,131.5 Z"/></g>
<g><path style="opacity:1" fill="#ecf6ac" d="M 26.5,126.5 C 26.5,126.167 26.5,125.833 26.5,125.5C 28.3841,125.712 29.7174,126.712 30.5,128.5C 31.086,128.291 31.586,127.957 32,127.5C 32.4935,129.134 32.6602,130.801 32.5,132.5C 36.2259,132.899 39.2259,134.566 41.5,137.5C 47.1667,138.167 52.8333,138.833 58.5,139.5C 61.1394,140.476 63.1394,142.143 64.5,144.5C 63.8333,144.5 63.1667,144.5 62.5,144.5C 61.4863,143.326 60.153,142.66 58.5,142.5C 58.0825,141.778 57.4158,141.278 56.5,141C 50.8112,140.627 45.1445,140.127 39.5,139.5C 38.4863,138.326 37.153,137.66 35.5,137.5C 35.0269,136.094 34.0269,135.427 32.5,135.5C 32.2624,133.596 31.2624,132.262 29.5,131.5C 28.6618,131.158 28.3284,130.492 28.5,129.5C 28.573,127.973 27.9063,126.973 26.5,126.5 Z"/></g>
<g><path style="opacity:0.063" fill="#f7faef" d="M 117.5,131.5 C 116.5,134.5 114.5,136.5 111.5,137.5C 111.5,137.167 111.5,136.833 111.5,136.5C 113.5,134.833 115.5,133.167 117.5,131.5 Z"/></g>
<g><path style="opacity:0.345" fill="#f5f8e9" d="M 32.5,135.5 C 34.0269,135.427 35.0269,136.094 35.5,137.5C 33.9731,137.573 32.9731,136.906 32.5,135.5 Z"/></g>
<g><path style="opacity:0.114" fill="#f6f9ee" d="M 35.5,137.5 C 37.153,137.66 38.4863,138.326 39.5,139.5C 37.6203,139.771 36.287,139.104 35.5,137.5 Z"/></g>
<g><path style="opacity:0.102" fill="#f8faf1" d="M 111.5,137.5 C 110.713,139.104 109.38,139.771 107.5,139.5C 108.514,138.326 109.847,137.66 111.5,137.5 Z"/></g>
<g><path style="opacity:0.038" fill="#f9fbf3" d="M 39.5,139.5 C 45.1445,140.127 50.8112,140.627 56.5,141C 57.4158,141.278 58.0825,141.778 58.5,142.5C 53.1991,141.823 47.8657,141.323 42.5,141C 41.2625,140.768 40.2625,140.268 39.5,139.5 Z"/></g>
<g><path style="opacity:1" fill="#edf6b2" d="M 111.5,136.5 C 111.5,136.833 111.5,137.167 111.5,137.5C 109.847,137.66 108.514,138.326 107.5,139.5C 101.991,139.875 96.6575,140.542 91.5,141.5C 90.0697,142.537 88.403,143.204 86.5,143.5C 83.3714,143.974 80.7047,145.308 78.5,147.5C 74.1667,147.5 69.8333,147.5 65.5,147.5C 65.5,147.167 65.5,146.833 65.5,146.5C 73.4996,148.13 80.1663,145.963 85.5,140C 94.2131,139.053 102.88,137.886 111.5,136.5 Z"/></g>
<g><path style="opacity:0.037" fill="#fafbf5" d="M 107.5,139.5 C 106.737,140.268 105.737,140.768 104.5,141C 100.179,141.499 95.8461,141.666 91.5,141.5C 96.6575,140.542 101.991,139.875 107.5,139.5 Z"/></g>
<g><path style="opacity:0.161" fill="#f6f9ee" d="M 58.5,142.5 C 60.153,142.66 61.4863,143.326 62.5,144.5C 60.6203,144.771 59.287,144.104 58.5,142.5 Z"/></g>
<g><path style="opacity:0.251" fill="#f6f8ea" d="M 62.5,144.5 C 63.1667,144.5 63.8333,144.5 64.5,144.5C 64.8333,145.167 65.1667,145.833 65.5,146.5C 63.9731,146.573 62.9731,145.906 62.5,144.5 Z"/></g>
<g><path style="opacity:0.094" fill="#f5f8e5" d="M 86.5,143.5 C 84.8333,144.833 83.1667,146.167 81.5,147.5C 80.5,147.5 79.5,147.5 78.5,147.5C 80.7047,145.308 83.3714,143.974 86.5,143.5 Z"/></g>
</svg>
